<?xml version="1.0" encoding="utf-8"?>
<!-- Generator: Adobe Illustrator 16.0.4, SVG Export Plug-In . SVG Version: 6.00 Build 0)  -->
<!DOCTYPE svg PUBLIC "-//W3C//DTD SVG 1.1//EN" "http://www.w3.org/Graphics/SVG/1.1/DTD/svg11.dtd">
<svg version="1.1" id="Layer_1" xmlns="http://www.w3.org/2000/svg" xmlns:xlink="http://www.w3.org/1999/xlink" x="0px" y="0px"
	 width="29.895px" height="23.277px" viewBox="0 0 29.895 23.277" enable-background="new 0 0 29.895 23.277" xml:space="preserve">
<g id="_x33__2_">
	<path id="_x33__1_" opacity="0.8" fill="#F2EEE5" d="M24.345,10.327c-0.031-0.031-0.062-0.062-0.094-0.094
		c-0.031-0.031-0.062-0.062-0.094-0.093c-0.03-0.032-0.062-0.063-0.093-0.093c-0.03-0.031-0.062-0.062-0.093-0.093
		s-0.062-0.062-0.094-0.093c-0.03-0.032-0.062-0.063-0.095-0.095c-0.029-0.031-0.06-0.062-0.091-0.091
		c-0.031-0.032-0.062-0.063-0.095-0.094c-0.03-0.031-0.061-0.062-0.092-0.092c-0.031-0.032-0.062-0.063-0.094-0.094
		c-0.03-0.031-0.062-0.062-0.093-0.093c-0.031-0.031-0.062-0.062-0.094-0.093c-0.03-0.031-0.061-0.062-0.093-0.092
		c-0.03-0.032-0.062-0.064-0.094-0.095c-0.031-0.031-0.062-0.062-0.094-0.093c-0.03-0.031-0.061-0.062-0.092-0.092
		c-0.03-0.031-0.062-0.063-0.094-0.093c-0.03-0.032-0.062-0.063-0.093-0.094c-0.031-0.031-0.062-0.063-0.094-0.093
		c-0.03-0.031-0.062-0.063-0.093-0.093C22.449,8.432,22.419,8.4,22.387,8.37c-0.03-0.031-0.062-0.063-0.094-0.093
		c-0.03-0.031-0.061-0.062-0.092-0.092c-0.031-0.032-0.062-0.063-0.095-0.095c-0.03-0.031-0.061-0.062-0.092-0.092
		c-0.03-0.031-0.062-0.063-0.094-0.094c-0.03-0.031-0.061-0.062-0.093-0.092c-0.03-0.032-0.062-0.063-0.094-0.094
		c-0.03-0.031-0.062-0.062-0.093-0.093c-0.03-0.032-0.062-0.062-0.094-0.093c-0.03-0.032-0.062-0.063-0.093-0.094
		c-0.031-0.031-0.062-0.062-0.093-0.092c-0.03-0.031-0.062-0.062-0.093-0.093c-0.031-0.032-0.062-0.063-0.094-0.094
		s-0.062-0.062-0.094-0.093c-0.03-0.031-0.061-0.062-0.093-0.093c-0.03-0.032-0.062-0.063-0.094-0.094
		c-0.03-0.031-0.062-0.062-0.093-0.093c-0.03-0.032-0.062-0.062-0.093-0.093c-0.031-0.032-0.062-0.063-0.094-0.094
		c-0.03-0.031-0.062-0.062-0.093-0.092c-0.03-0.032-0.062-0.063-0.094-0.094c-0.03-0.031-0.062-0.062-0.093-0.093
		s-0.062-0.062-0.093-0.092c-0.03-0.032-0.062-0.063-0.094-0.093c-0.03-0.032-0.062-0.063-0.094-0.094
		c-0.03-0.032-0.061-0.062-0.093-0.093c-0.03-0.032-0.062-0.063-0.093-0.093C19.84,5.822,19.81,5.791,19.777,5.76
		c-0.03-0.031-0.062-0.062-0.093-0.093c-0.03-0.031-0.062-0.062-0.092-0.092c-0.032-0.032-0.062-0.063-0.096-0.095
		c-0.029-0.031-0.061-0.062-0.091-0.092c-0.031-0.032-0.062-0.063-0.095-0.094c-0.03-0.031-0.062-0.062-0.093-0.093
		c-0.031-0.032-0.062-0.063-0.094-0.093c-0.576-0.592-1.337-1.027-2.22-1.209c-2.271-0.467-4.477,0.922-4.926,3.104
		c-0.284,1.379,0.204,2.744,1.174,3.68c0.03,0.031,0.061,0.062,0.092,0.093c0.031,0.031,0.062,0.063,0.094,0.094
		c0.03,0.031,0.062,0.062,0.093,0.093c0.03,0.031,0.061,0.062,0.091,0.092c0.031,0.032,0.062,0.063,0.095,0.095
		c0.031,0.032,0.062,0.062,0.094,0.094c0.03,0.031,0.061,0.062,0.092,0.092c0.031,0.032,0.062,0.063,0.094,0.094
		c0.031,0.031,0.062,0.063,0.093,0.094c0.031,0.031,0.062,0.062,0.093,0.093c0.031,0.031,0.062,0.062,0.093,0.094
		c0.03,0.03,0.061,0.062,0.093,0.093c0.03,0.031,0.061,0.062,0.092,0.092c0.031,0.032,0.062,0.063,0.094,0.095
		c0.031,0.031,0.062,0.062,0.093,0.093c0.031,0.031,0.062,0.063,0.094,0.094c0.031,0.031,0.061,0.062,0.093,0.093
		c0.03,0.031,0.062,0.062,0.093,0.094c0.031,0.031,0.062,0.062,0.093,0.093c0.03,0.031,0.061,0.062,0.092,0.092
		c0.031,0.032,0.062,0.063,0.094,0.095c0.031,0.031,0.061,0.062,0.093,0.092c0.031,0.032,0.062,0.064,0.094,0.095
		c0.03,0.031,0.061,0.062,0.092,0.093c0.031,0.031,0.062,0.062,0.094,0.094c0.03,0.03,0.061,0.062,0.092,0.093
		c0.031,0.031,0.062,0.062,0.094,0.094c0.03,0.03,0.061,0.062,0.093,0.093c0.031,0.031,0.062,0.062,0.093,0.093
		c0.03,0.031,0.061,0.062,0.093,0.093c0.03,0.031,0.062,0.063,0.094,0.094c0.03,0.031,0.061,0.062,0.092,0.092
		c0.031,0.032,0.062,0.064,0.094,0.095c0.031,0.031,0.062,0.062,0.094,0.093c0.03,0.031,0.061,0.063,0.093,0.094
		c0.03,0.031,0.061,0.062,0.092,0.093c0.031,0.031,0.062,0.062,0.094,0.094c0.03,0.031,0.061,0.062,0.093,0.092
		c0.03,0.032,0.062,0.062,0.093,0.094c0.031,0.031,0.062,0.063,0.094,0.094c0.03,0.031,0.062,0.062,0.093,0.093
		c0.031,0.031,0.061,0.062,0.093,0.093c0.031,0.032,0.062,0.063,0.094,0.095c0.03,0.03,0.061,0.062,0.092,0.092
		c0.031,0.031,0.062,0.062,0.093,0.094c0.031,0.031,0.062,0.063,0.094,0.094c0.03,0.031,0.061,0.062,0.092,0.093
		c0.031,0.03,0.061,0.062,0.093,0.092c0.031,0.032,0.062,0.063,0.094,0.095c0.031,0.031,0.062,0.062,0.093,0.093
		c0.031,0.031,0.062,0.063,0.094,0.094c0.03,0.031,0.061,0.062,0.092,0.093s0.062,0.062,0.094,0.094s0.062,0.062,0.093,0.093
		c0.031,0.031,0.062,0.062,0.094,0.093c0.03,0.031,0.062,0.062,0.093,0.094c0.03,0.03,0.061,0.062,0.092,0.091
		c0.031,0.033,0.063,0.064,0.096,0.096c0.03,0.031,0.061,0.062,0.092,0.093c0.019,0.019,0.037,0.037,0.056,0.055h5.773v-5.773
		c-0.015-0.014-0.029-0.028-0.044-0.043C24.405,10.388,24.376,10.357,24.345,10.327z"/>
	<g id="_x33_">
		<path fill="#CC7D33" d="M16.905,3.899c-2.271-0.467-4.477,0.922-4.926,3.104c-0.449,2.181,1.029,4.328,3.301,4.796
			c2.271,0.467,4.477-0.923,4.926-3.104C20.654,6.514,19.177,4.367,16.905,3.899z M15.844,9.055
			C15.151,8.912,14.7,8.256,14.836,7.59c0.137-0.666,0.811-1.09,1.504-0.947c0.693,0.143,1.145,0.798,1.007,1.464
			C17.211,8.773,16.538,9.198,15.844,9.055z"/>
		<g>
			
				<ellipse transform="matrix(0.2026 -0.9793 0.9793 0.2026 7.0988 21.7247)" fill="#F7A5AA" cx="16.889" cy="6.503" rx="0.13" ry="0.136"/>
			
				<ellipse transform="matrix(0.2008 -0.9796 0.9796 0.2008 7.3499 20.9556)" fill="#F7A5AA" cx="16.518" cy="5.973" rx="0.13" ry="0.135"/>
			
				<ellipse transform="matrix(0.2015 -0.9795 0.9795 0.2015 7.9221 22.4408)" fill="#F7A5AA" cx="17.725" cy="6.361" rx="0.13" ry="0.135"/>
			
				<ellipse transform="matrix(0.2026 -0.9793 0.9793 0.2026 8.105 21.5248)" fill="#F7A5AA" cx="17.27" cy="5.786" rx="0.13" ry="0.136"/>
			
				<ellipse transform="matrix(0.2012 -0.9796 0.9796 0.2012 7.996 20.1649)" fill="#F7A5AA" cx="16.362" cy="5.18" rx="0.13" ry="0.135"/>
			
				<ellipse transform="matrix(0.2008 -0.9796 0.9796 0.2008 6.4482 20.238)" fill="#F7A5AA" cx="15.628" cy="6.167" rx="0.13" ry="0.135"/>
			<circle fill="#F7A5AA" cx="15.525" cy="5.427" r="0.13"/>
			<circle fill="#F7A5AA" cx="17.621" cy="7.22" r="0.13"/>
			
				<ellipse transform="matrix(0.203 -0.9792 0.9792 0.203 7.9144 23.6349)" fill="#F7A5AA" cx="18.476" cy="6.956" rx="0.13" ry="0.136"/>
			<circle fill="#F7A5AA" cx="18.427" cy="5.919" r="0.13"/>
			
				<ellipse transform="matrix(0.203 -0.9792 0.9792 0.203 9.068 21.2699)" fill="#F7A5AA" cx="17.6" cy="5.065" rx="0.13" ry="0.135"/>
			
				<ellipse transform="matrix(0.2026 -0.9793 0.9793 0.2026 8.1634 19.1513)" fill="#F7A5AA" cx="15.841" cy="4.563" rx="0.13" ry="0.136"/>
			<circle fill="#F7A5AA" cx="14.785" cy="5.17" r="0.13"/>
			
				<ellipse transform="matrix(0.2012 -0.9796 0.9796 0.2012 5.3486 19.9323)" fill="#F7A5AA" cx="14.895" cy="6.687" rx="0.13" ry="0.135"/>
			
				<ellipse transform="matrix(0.203 -0.9792 0.9792 0.203 5.9438 19.0849)" fill="#F7A5AA" cx="14.695" cy="5.891" rx="0.13" ry="0.135"/>
			
				<ellipse transform="matrix(0.203 -0.9792 0.9792 0.203 4.9945 18.6462)" fill="#F7A5AA" cx="13.951" cy="6.255" rx="0.13" ry="0.135"/>
			
				<ellipse transform="matrix(0.2012 -0.9796 0.9796 0.2012 3.8827 20.2812)" fill="#F7A5AA" cx="14.376" cy="7.76" rx="0.13" ry="0.135"/>
			
				<ellipse transform="matrix(0.2012 -0.9796 0.9796 0.2012 3.442 19.3433)" fill="#F7A5AA" cx="13.581" cy="7.561" rx="0.13" ry="0.135"/>
			
				<ellipse transform="matrix(0.2012 -0.9796 0.9796 0.2012 3.9882 17.9613)" fill="#F7A5AA" cx="13.007" cy="6.535" rx="0.13" ry="0.135"/>
			
				<ellipse transform="matrix(0.203 -0.9792 0.9792 0.203 6.3286 23.7111)" fill="#F7A5AA" cx="17.729" cy="7.968" rx="0.13" ry="0.135"/>
			
				<ellipse transform="matrix(0.203 -0.9792 0.9792 0.203 5.3277 24.0703)" fill="#F7A5AA" cx="17.45" cy="8.762" rx="0.13" ry="0.136"/>
			
				<ellipse transform="matrix(0.2012 -0.9796 0.9796 0.2012 3.9861 23.9343)" fill="#F7A5AA" cx="16.668" cy="9.523" rx="0.13" ry="0.135"/>
			<circle fill="#F7A5AA" cx="15.652" cy="9.475" r="0.13"/>
			
				<ellipse transform="matrix(0.2012 -0.9796 0.9796 0.2012 2.9955 22.0751)" fill="#F7A5AA" cx="15.032" cy="9.201" rx="0.13" ry="0.135"/>
			
				<ellipse transform="matrix(0.2012 -0.9796 0.9796 0.2012 3.1576 20.9848)" fill="#F7A5AA" cx="14.445" cy="8.556" rx="0.13" ry="0.135"/>
			
				<ellipse transform="matrix(0.203 -0.9792 0.9792 0.203 7.0648 23.9465)" fill="#F7A5AA" cx="18.242" cy="7.634" rx="0.13" ry="0.136"/>
			
				<ellipse transform="matrix(0.203 -0.9792 0.9792 0.203 7.8334 24.9552)" fill="#F7A5AA" cx="19.246" cy="7.666" rx="0.13" ry="0.136"/>
			
				<ellipse transform="matrix(0.1994 -0.9799 0.9799 0.1994 6.6396 24.9834)" fill="#F7A5AA" cx="18.609" cy="8.428" rx="0.13" ry="0.135"/>
			
				<ellipse transform="matrix(0.203 -0.9792 0.9792 0.203 5.837 24.5055)" fill="#F7A5AA" cx="17.972" cy="8.667" rx="0.13" ry="0.136"/>
			
				<ellipse transform="matrix(0.2026 -0.9793 0.9793 0.2026 5.238 25.5547)" fill="#F7A5AA" cx="18.311" cy="9.561" rx="0.13" ry="0.136"/>
			
				<ellipse transform="matrix(0.2034 -0.9791 0.9791 0.2034 4.7539 24.6757)" fill="#F7A5AA" cx="17.541" cy="9.417" rx="0.13" ry="0.135"/>
			
				<ellipse transform="matrix(0.203 -0.9792 0.9792 0.203 3.9807 24.9037)" fill="#F7A5AA" cx="17.288" cy="10.007" rx="0.13" ry="0.135"/>
			
				<ellipse transform="matrix(0.2015 -0.9795 0.9795 0.2015 2.7812 24.7887)" fill="#F7A5AA" cx="16.595" cy="10.688" rx="0.13" ry="0.135"/>
			
				<ellipse transform="matrix(0.2015 -0.9795 0.9795 0.2015 3.124 23.8381)" fill="#F7A5AA" cx="16.183" cy="10.003" rx="0.13" ry="0.135"/>
			
				<ellipse transform="matrix(0.2034 -0.9791 0.9791 0.2034 1.8715 23.5716)" fill="#F7A5AA" cx="15.421" cy="10.636" rx="0.13" ry="0.136"/>
			<circle fill="#F7A5AA" cx="15.302" cy="10.045" r="0.13"/>
			<circle fill="#F7A5AA" cx="14.355" cy="9.557" r="0.13"/>
			
				<ellipse transform="matrix(0.2015 -0.9795 0.9795 0.2015 1.2779 22.5989)" fill="#F7A5AA" cx="14.5" cy="10.516" rx="0.13" ry="0.135"/>
			
				<ellipse transform="matrix(0.2008 -0.9796 0.9796 0.2008 2.3736 20.263)" fill="#F7A5AA" cx="13.606" cy="8.677" rx="0.13" ry="0.135"/>
			
				<ellipse transform="matrix(0.2015 -0.9795 0.9795 0.2015 2.543 19.2885)" fill="#F7A5AA" cx="13.102" cy="8.084" rx="0.13" ry="0.135"/>
			<circle fill="#F7A5AA" cx="13.621" cy="9.448" r="0.13"/>
			
				<ellipse transform="matrix(0.2008 -0.9796 0.9796 0.2008 1.7505 19.593)" fill="#F7A5AA" cx="12.884" cy="8.724" rx="0.13" ry="0.135"/>
			
				<ellipse transform="matrix(0.2026 -0.9793 0.9793 0.2026 8.7178 24.046)" fill="#F7A5AA" cx="19.124" cy="6.67" rx="0.13" ry="0.136"/>
			
				<ellipse transform="matrix(0.1997 -0.9798 0.9798 0.1997 4.1839 26.0271)" fill="#F7A5AA" cx="18.026" cy="10.452" rx="0.13" ry="0.136"/>
			
				<ellipse transform="matrix(0.1994 -0.9799 0.9799 0.1994 6.4731 26.1391)" fill="#F7A5AA" cx="19.233" cy="9.108" rx="0.13" ry="0.135"/>
			
				<ellipse transform="matrix(0.2008 -0.9796 0.9796 0.2008 0.7292 21.4476)" fill="#F7A5AA" cx="13.51" cy="10.277" rx="0.13" ry="0.135"/>
			
				<ellipse transform="matrix(0.2012 -0.9796 0.9796 0.2012 2.9191 18.2861)" fill="#F7A5AA" cx="12.671" cy="7.353" rx="0.13" ry="0.135"/>
			
				<ellipse transform="matrix(0.199 -0.98 0.98 0.199 9.2654 22.0597)" fill="#F7A5AA" cx="18.127" cy="5.362" rx="0.13" ry="0.135"/>
			
				<ellipse transform="matrix(0.2008 -0.9796 0.9796 0.2008 4.455 19.1864)" fill="#F7A5AA" cx="13.987" cy="6.863" rx="0.13" ry="0.136"/>
			
				<ellipse transform="matrix(0.2008 -0.9796 0.9796 0.2008 5.6999 17.7231)" fill="#F7A5AA" cx="13.712" cy="5.368" rx="0.13" ry="0.135"/>
		</g>
	</g>
</g>
<text transform="matrix(1.06 0 0 1 1.9497 10.7656)" fill="#754C24" font-family="'Scriptina'" font-size="12">J</text>
<text transform="matrix(1.06 0 0 1 19.0977 7.7603)" font-family="'Scriptina'" font-size="7">‘S</text>
<text transform="matrix(1.06 0 0 1 7.9697 16.6479)" fill="#754C24" font-family="'Scriptina'" font-size="7">Bagels</text>
</svg>
