<?xml version="1.0" encoding="utf-8"?>
<!-- Generator: Adobe Illustrator 16.0.4, SVG Export Plug-In . SVG Version: 6.00 Build 0)  -->
<!DOCTYPE svg PUBLIC "-//W3C//DTD SVG 1.1//EN" "http://www.w3.org/Graphics/SVG/1.1/DTD/svg11.dtd">
<svg version="1.1" id="Layer_1" xmlns="http://www.w3.org/2000/svg" xmlns:xlink="http://www.w3.org/1999/xlink" x="0px" y="0px"
	 width="581.08px" height="190px" viewBox="0 0 581.08 190" enable-background="new 0 0 581.08 190" xml:space="preserve">
<g>
	<g>
		<path fill="#FFFFFF" d="M167.662,67.9c2.953,0,5.736,0.555,8.35,1.662c2.611,1.107,4.869,2.613,6.773,4.516
			c1.902,1.903,3.408,4.161,4.516,6.773c1.107,2.613,1.661,5.396,1.661,8.35v21.3h-4.26v-21.3c0-2.328-0.455-4.529-1.363-6.604
			c-0.909-2.072-2.13-3.877-3.663-5.41c-1.534-1.533-3.338-2.754-5.41-3.664c-2.074-0.908-4.275-1.363-6.604-1.363
			c-2.33,0-4.53,0.455-6.604,1.363c-2.074,0.91-3.877,2.131-5.41,3.664s-2.756,3.338-3.664,5.41
			c-0.908,2.074-1.362,4.275-1.362,6.604v21.3h-4.261v-21.3c0-2.328-0.455-4.529-1.363-6.604c-0.908-2.072-2.129-3.877-3.663-5.41
			s-3.337-2.754-5.41-3.664c-2.074-0.908-4.274-1.363-6.603-1.363c-2.33,0-4.531,0.455-6.604,1.363
			c-2.074,0.91-3.877,2.131-5.41,3.664s-2.756,3.338-3.664,5.41c-0.909,2.074-1.363,4.275-1.363,6.604v21.3h-4.26v-21.3
			c0-2.953,0.566-5.736,1.704-8.35c1.136-2.612,2.684-4.87,4.644-6.773c1.959-1.902,4.217-3.408,6.773-4.516
			c2.556-1.107,5.282-1.662,8.18-1.662c2.1,0,4.132,0.299,6.092,0.895c1.959,0.597,3.762,1.436,5.41,2.514
			c1.646,1.08,3.123,2.344,4.43,3.791c1.307,1.449,2.386,3.025,3.238,4.729c0.852-1.703,1.945-3.279,3.279-4.729
			c1.334-1.447,2.84-2.711,4.516-3.791c1.676-1.078,3.479-1.917,5.41-2.514C163.629,68.199,165.617,67.9,167.662,67.9z"/>
		<path fill="#FFFFFF" d="M217.163,67.9c2.896,0,5.623,0.555,8.179,1.662c2.557,1.107,4.814,2.613,6.773,4.516
			c1.96,1.903,3.507,4.161,4.645,6.773c1.135,2.613,1.703,5.396,1.703,8.35c0,3.011-0.568,5.809-1.703,8.393
			c-1.138,2.584-2.685,4.828-4.645,6.73c-1.959,1.903-4.217,3.408-6.773,4.516c-2.556,1.107-5.282,1.661-8.179,1.661
			c-3.011,0-5.809-0.554-8.393-1.661c-2.585-1.107-4.828-2.612-6.73-4.516c-1.903-1.902-3.408-4.146-4.516-6.73
			c-1.108-2.584-1.661-5.382-1.661-8.393c0-2.953,0.553-5.736,1.661-8.35c1.107-2.612,2.612-4.87,4.516-6.773
			c1.902-1.902,4.146-3.408,6.73-4.516C211.354,68.455,214.152,67.9,217.163,67.9z M217.163,106.24c2.328,0,4.528-0.453,6.603-1.362
			c2.073-0.908,3.877-2.13,5.41-3.664c1.534-1.533,2.755-3.336,3.664-5.41c0.908-2.073,1.363-4.273,1.363-6.603
			c0-2.328-0.455-4.529-1.363-6.604c-0.909-2.072-2.13-3.877-3.664-5.41c-1.533-1.533-3.337-2.754-5.41-3.664
			c-2.074-0.908-4.274-1.363-6.603-1.363c-2.329,0-4.53,0.455-6.603,1.363c-2.074,0.91-3.877,2.131-5.41,3.664
			c-1.534,1.533-2.756,3.338-3.664,5.41c-0.91,2.074-1.363,4.275-1.363,6.604c0,2.329,0.453,4.529,1.363,6.603
			c0.908,2.074,2.13,3.877,3.664,5.41c1.533,1.534,3.336,2.756,5.41,3.664C212.633,105.787,214.834,106.24,217.163,106.24z"/>
		<path fill="#FFFFFF" d="M266.664,67.9c2.953,0,5.736,0.555,8.35,1.662c2.612,1.107,4.87,2.613,6.773,4.516
			c1.902,1.903,3.408,4.161,4.516,6.773c1.107,2.613,1.662,5.396,1.662,8.35c0,3.011-0.555,5.809-1.662,8.393
			s-2.613,4.828-4.516,6.73c-1.903,1.903-4.161,3.408-6.773,4.516c-2.613,1.107-5.396,1.661-8.35,1.661
			c-3.011,0-5.809-0.554-8.393-1.661s-4.828-2.612-6.73-4.516c-1.903-1.902-3.408-4.146-4.516-6.73s-1.661-5.382-1.661-8.393V60.232
			h4.261v16.188c1.93-2.556,4.4-4.614,7.412-6.177C260.047,68.682,263.256,67.9,266.664,67.9z M266.664,106.24
			c2.328,0,4.529-0.453,6.604-1.362c2.072-0.908,3.877-2.13,5.41-3.664c1.533-1.533,2.754-3.336,3.664-5.41
			c0.908-2.073,1.363-4.273,1.363-6.603c0-2.328-0.455-4.529-1.363-6.604c-0.91-2.072-2.131-3.877-3.664-5.41
			s-3.338-2.754-5.41-3.664c-2.074-0.908-4.275-1.363-6.604-1.363c-2.329,0-4.529,0.455-6.603,1.363
			c-2.074,0.91-3.877,2.131-5.41,3.664c-1.534,1.533-2.756,3.338-3.664,5.41c-0.909,2.074-1.362,4.275-1.362,6.604
			c0,2.329,0.453,4.529,1.362,6.603c0.908,2.074,2.13,3.877,3.664,5.41c1.533,1.534,3.336,2.756,5.41,3.664
			C262.135,105.787,264.335,106.24,266.664,106.24z"/>
		<path fill="#FFFFFF" d="M294.865,64.492v-4.26h4.261v4.26H294.865z M294.865,110.501V67.9h4.261v42.601H294.865z"/>
		<path fill="#FFFFFF" d="M306.025,110.501V60.232h4.261v50.269H306.025z"/>
		<path fill="#FFFFFF" d="M338.486,106.24c3.635,0,6.844-0.965,9.627-2.896c2.783-1.93,4.828-4.516,6.135-7.753h4.686
			c-0.738,2.159-1.775,4.147-3.109,5.964c-1.334,1.818-2.896,3.381-4.686,4.686c-1.789,1.309-3.764,2.344-5.922,3.11
			s-4.402,1.15-6.73,1.15c-3.012,0-5.809-0.554-8.393-1.661c-2.585-1.107-4.828-2.612-6.73-4.516
			c-1.904-1.902-3.408-4.146-4.516-6.73s-1.662-5.382-1.662-8.393c0-2.953,0.555-5.736,1.662-8.35
			c1.107-2.612,2.611-4.87,4.516-6.773c1.902-1.902,4.146-3.408,6.73-4.516c2.584-1.107,5.381-1.662,8.393-1.662
			c2.953,0,5.736,0.555,8.35,1.662c2.611,1.107,4.869,2.613,6.773,4.516c1.902,1.903,3.408,4.161,4.516,6.773
			c1.107,2.613,1.662,5.396,1.662,8.35v2.13h-7.668h-30.673c0.341,2.159,1.007,4.146,2.002,5.964
			c0.993,1.818,2.258,3.38,3.792,4.686c1.533,1.308,3.25,2.344,5.154,3.11C334.297,105.857,336.326,106.24,338.486,106.24z
			 M338.486,72.16c-2.16,0-4.189,0.384-6.092,1.15c-1.904,0.768-3.621,1.805-5.154,3.11c-1.534,1.308-2.799,2.884-3.792,4.729
			c-0.995,1.847-1.661,3.821-2.002,5.921h34.079c-0.34-2.1-1.008-4.074-2.002-5.921c-0.994-1.845-2.258-3.421-3.791-4.729
			c-1.533-1.306-3.268-2.343-5.197-3.11C342.604,72.544,340.588,72.16,338.486,72.16z"/>
	</g>
	<g>
		<path fill="#FFFFFF" d="M366.176,44.616c5.252-0.792,11.494-1.387,18.33-1.387c12.385,0,21.201,2.873,27.047,8.322
			c5.945,5.449,9.412,13.177,9.412,23.976c0,10.898-3.367,19.815-9.609,25.959c-6.242,6.241-16.547,9.609-29.525,9.609
			c-6.143,0-11.295-0.297-15.654-0.793V44.616z M374.797,103.665c2.18,0.396,5.35,0.495,8.719,0.495
			c18.428,0,28.434-10.303,28.434-28.335c0.1-15.753-8.818-25.76-27.047-25.76c-4.459,0-7.828,0.396-10.105,0.892V103.665z"/>
		<path fill="#FFFFFF" d="M437.117,88.11c0.199,11.79,7.729,16.645,16.447,16.645c6.242,0,10.006-1.09,13.275-2.477l1.486,6.241
			c-3.07,1.388-8.322,2.973-15.951,2.973c-14.762,0-23.58-9.709-23.58-24.174s8.521-25.859,22.49-25.859
			c15.654,0,19.816,13.771,19.816,22.59c0,1.783-0.199,3.17-0.299,4.062H437.117z M462.68,81.869
			c0.1-5.549-2.279-14.168-12.088-14.168c-8.816,0-12.682,8.124-13.375,14.168H462.68z"/>
		<path fill="#FFFFFF" d="M508.455,110.502l-0.695-6.044h-0.297c-2.674,3.765-7.826,7.134-14.662,7.134
			c-9.709,0-14.664-6.837-14.664-13.771c0-11.592,10.305-17.934,28.832-17.834v-0.99c0-3.963-1.09-11.098-10.898-11.098
			c-4.459,0-9.115,1.388-12.484,3.567l-1.98-5.747c3.963-2.575,9.709-4.26,15.752-4.26c14.664,0,18.23,10.007,18.23,19.617v17.933
			c0,4.161,0.197,8.224,0.793,11.493H508.455z M507.166,86.029c-9.512-0.197-20.311,1.486-20.311,10.8
			c0,5.647,3.766,8.322,8.223,8.322c6.242,0,10.205-3.963,11.592-8.024c0.299-0.893,0.496-1.883,0.496-2.775V86.029z"/>
		<path fill="#FFFFFF" d="M529.66,40.158h8.719v70.344h-8.719V40.158z"/>
		<path fill="#FFFFFF" d="M551.854,101.584c2.574,1.686,7.133,3.469,11.492,3.469c6.34,0,9.312-3.171,9.312-7.134
			c0-4.161-2.477-6.44-8.916-8.817c-8.619-3.072-12.682-7.827-12.682-13.574c0-7.728,6.242-14.068,16.545-14.068
			c4.855,0,9.115,1.387,11.791,2.973l-2.18,6.341c-1.883-1.188-5.352-2.774-9.809-2.774c-5.152,0-8.025,2.973-8.025,6.539
			c0,3.963,2.873,5.746,9.115,8.124c8.322,3.171,12.582,7.331,12.582,14.466c0,8.421-6.539,14.365-17.934,14.365
			c-5.25,0-10.105-1.288-13.473-3.27L551.854,101.584z"/>
	</g>
	<path fill="#FFFFFF" d="M58,11c0,0.553-0.447,1-1,1H36c-0.552,0-1-0.447-1-1l0,0c0-0.553,0.448-1,1-1h21C57.553,10,58,10.447,58,11
		L58,11z"/>
	<linearGradient id="SVGID_1_" gradientUnits="userSpaceOnUse" x1="23.7974" y1="127.6187" x2="75.7979" y2="61.061">
		<stop  offset="0" style="stop-color:#29ABE2"/>
		<stop  offset="1" style="stop-color:#0071BC"/>
	</linearGradient>
	<path fill="url(#SVGID_1_)" d="M20,62v62.651l31.639-22.406c4.614-3.268,10.69-1.679,13.574,3.551
		c2.883,5.23,1.48,12.118-3.133,15.387L49.629,130H77V62H20z"/>
	<rect x="40" y="12" fill="#FFFFFF" width="13" height="2"/>
	<circle fill="none" cx="46.691" cy="6.07" r="3.787"/>
	<rect x="40" y="12" fill="none" width="13" height="2"/>
	<path fill="none" d="M47.488,169.451c-0.799,0-1.568,0.12-2.297,0.339l-3.56,2.225c-1.326,1.428-2.143,3.334-2.143,5.437
		c0,4.42,3.58,8,8,8c4.418,0,8-3.58,8-8C55.488,173.033,51.906,169.451,47.488,169.451z"/>
	<path fill="#FFFFFF" d="M84,59.637V160H55.391c-0.035-1.477-0.497-3.069-1.418-4.543c-2.195-3.513-6.134-5.01-8.799-3.344
		L32.552,160h-3.698l11.674-7.294c0.388-0.242,0.722-0.544,1.012-0.884l9.583-5.988c2.664-1.666,3.045-5.863,0.85-9.377
		c-2.195-3.513-6.134-5.01-8.799-3.344l-24.451,15.278c-0.388,0.242-0.722,0.544-1.012,0.884l-4.405,2.752
		c-0.802-0.647-1.402-1.41-1.771-2.278c0.628-0.188,1.244-0.455,1.827-0.819l32.227-20.137c0.512-0.32,0.965-0.696,1.37-1.107
		l12.63-7.893c3.512-2.195,4.58-6.822,2.385-10.336c-2.195-3.513-6.821-4.58-10.334-2.385l-32.227,20.137
		c-0.512,0.32-0.965,0.696-1.371,1.109L11,132.717v-2.682l5.123-3.201c2.665-1.666,3.045-5.863,0.85-9.377
		c-1.499-2.398-3.809-3.854-5.973-4.008V18h58.211c2.502-5.885,6.738-11.121,12.531-14.861c1.337-0.863,2.714-1.611,4.117-2.261
		C84.324,0.312,82.637,0,80.85,0h-67.42C6.013,0,0,5.276,0,12.375v165.25C0,184.724,6.013,190,13.429,190h67.42
		c7.416,0,13.15-5.276,13.15-12.375V62.954C90.518,62.396,87.14,61.274,84,59.637z M46.691,2.283c2.092,0,3.787,1.695,3.787,3.787
		s-1.695,3.787-3.787,3.787c-2.091,0-3.787-1.695-3.787-3.787S44.6,2.283,46.691,2.283z M40,12h13v2H40V12z M47.488,185.451
		c-4.419,0-8-3.58-8-8c0-2.103,0.817-4.009,2.143-5.437l3.56-2.225c0.729-0.219,1.498-0.339,2.297-0.339c4.418,0,8,3.582,8,8
		C55.488,181.871,51.906,185.451,47.488,185.451z"/>
	<g>
		<g>
			
				<linearGradient id="SVGID_2_" gradientUnits="userSpaceOnUse" x1="-29.9263" y1="131.5176" x2="-0.6948" y2="131.5176" gradientTransform="matrix(0.8338 0.552 -0.552 0.8338 166.3756 -66.74)">
				<stop  offset="0" style="stop-color:#009245"/>
				<stop  offset="1" style="stop-color:#006837"/>
			</linearGradient>
			<polygon fill="url(#SVGID_2_)" points="84.887,55.092 60.514,38.956 77.139,13.845 101.512,29.98 			"/>
			<g>
				<path fill="#FFFFFF" d="M76.439,40.153l-0.118,0.178c-0.195,0.295-0.457,0.434-0.784,0.415c0.105,0.354-0.207,1.081-0.937,2.184
					c-0.088,0.084-0.206,0.119-0.356,0.104l-0.086-0.015c0.1,0.236,0.097,0.433-0.008,0.59c-0.052,0.08-0.091,0.138-0.117,0.178
					l-0.195,0.295c-0.17,0.257-0.361,0.327-0.576,0.215c-0.059-0.04-0.139-0.093-0.239-0.159l-0.061-0.04l-0.083-0.268
					c-0.186,0.019-0.389-0.045-0.609-0.19c-0.227-0.18-0.253-0.38-0.076-0.604l0.43-0.649l0.305-0.011l0.004-0.082l-0.034-0.32
					c0.052-0.078,0.187-0.217,0.401-0.414c-0.355-0.234-0.428-0.51-0.219-0.825l-0.03-0.02c-0.808-0.534-0.814-1.785-0.021-3.753
					c0.019-0.158,0.074-0.305,0.165-0.443c0.092-0.138,0.238-0.252,0.441-0.345c-0.066-0.242-0.06-0.423,0.018-0.541
					c0.079-0.118,0.188-0.251,0.328-0.399c0.141-0.147,0.23-0.251,0.27-0.31c0.026-0.04,0.065-0.099,0.117-0.178
					c0.053-0.078,0.098-0.147,0.137-0.206c0.053-0.079,0.133-0.139,0.244-0.18c0.283,0.075,0.494,0.156,0.63,0.247
					c0.386,0.256,0.632,0.561,0.733,0.91c0.342-0.056,0.688,0.031,1.037,0.262l0.145,0.096l0.281,0.144
					c0.02,0.013,0.045,0.017,0.078,0.01l0.028,0.019c0.038,0.025,0.074,0.078,0.106,0.155l0.184,0.164l-0.002,0.127l-0.176,0.266
					c-0.508,0.769-0.9,1.146-1.175,1.135c0.157,0.217,0.128,0.573-0.089,1.066C76.312,39.453,76.281,39.851,76.439,40.153z
					 M83.185,41.518c-0.093,0.052-0.204,0.092-0.334,0.117l-0.099,0.021c0.014,0.32-0.051,0.59-0.193,0.806
					c-0.014,0.02-0.033,0.05-0.059,0.088c-0.06,0.046-0.096,0.08-0.109,0.099c-1.227,1.172-2.585,1.703-4.072,1.596
					c0-0.085-0.053-0.218-0.157-0.401c-0.106,0.071-0.279,0.1-0.521,0.079l-0.587,0.887l-0.284,0.11l-0.099,0.019l0.09,0.314
					l-0.411,0.62c-0.117,0.177-0.287,0.221-0.511,0.13l-0.088-0.06c-0.178-0.116-0.285-0.273-0.326-0.47
					c-0.196,0.04-0.383,0.001-0.561-0.115c-0.184-0.151-0.227-0.321-0.129-0.513l0.039-0.059l0.01-0.079
					c0.039-0.058,0.102-0.129,0.186-0.216c0.064-0.099,0.11-0.168,0.137-0.208l0.098-0.146c0.104-0.157,0.262-0.267,0.471-0.326
					l0.148-0.029l-0.008-0.133l-0.025-0.06l0.109-0.309l0.156-0.237c0.078-0.117,0.177-0.266,0.294-0.442
					c0.058-0.217,0.112-0.365,0.165-0.443c0.117-0.178,0.268-0.317,0.451-0.424h0.128l0.038-0.272
					c0.025-0.068,0.078-0.16,0.156-0.279l0.02-0.029c0.052-0.078,0.271-0.14,0.658-0.181c0.386-0.042,0.75-0.218,1.09-0.532
					c0.025-0.039,0.082-0.101,0.166-0.188c0.051-0.078,0.091-0.137,0.117-0.177c0.378-0.57,0.607-1.198,0.69-1.879l0.078-0.119
					c0.007-0.052,0.03-0.108,0.069-0.167c0.025-0.039,0.062-0.071,0.107-0.1l-0.098-0.106c-0.205-0.333-0.334-0.589-0.387-0.766
					c-0.266-0.969-0.533-1.741-0.803-2.316c-0.055-0.262-0.045-0.51,0.027-0.747l-0.188-0.167c-0.706-1.543-0.909-2.541-0.608-2.994
					l0.02-0.029l0.167-0.061c-0.198-0.386-0.259-0.808-0.181-1.267l-0.061-0.167l0.099-0.02c0.449-0.894,0.7-1.378,0.752-1.457
					c0.118-0.178,0.262-0.293,0.435-0.35l0.174-0.056l-0.021-0.226c0.025-0.039,0.078-0.118,0.156-0.236
					c0.044-0.111,0.087-0.196,0.127-0.256c0.364-0.551,0.86-1.087,1.488-1.607c0.301-0.111,0.749-0.296,1.344-0.553l0.296,0.195
					c0.409-0.318,0.901-0.442,1.477-0.369h0.128l0.31-0.469l0.38-0.126l-0.109-0.283l0.484-0.731
					c0.155-0.234,0.348-0.29,0.576-0.165c0.158,0.104,0.279,0.242,0.366,0.411l0.313,0.038l0.31,0.206
					c0.195,0.157,0.207,0.362,0.037,0.619L87,24.199c-0.013,0.021-0.025,0.04-0.039,0.06c-0.025,0.04-0.045,0.069-0.059,0.089
					c-0.078,0.118-0.245,0.178-0.5,0.179c0.137,0.177,0.063,0.48-0.224,0.914c-0.431,0.65-0.772,1.019-1.028,1.104l0.1,0.236
					c-0.033,0.091-0.096,0.207-0.186,0.345c-0.17,0.256-0.463,0.516-0.878,0.778c-0.415,0.264-0.691,0.478-0.828,0.642l-0.079,0.118
					c-0.038,0.06-0.1,0.175-0.185,0.344c-0.085,0.171-0.16,0.307-0.225,0.404c-0.157,0.236-0.356,0.431-0.599,0.582
					c0.113,0.302,0.163,0.59,0.152,0.864c0.072,0.531,0.348,1.25,0.821,2.16c0.526,0.999,0.854,1.769,0.979,2.305
					c-0.012,0.275-0.104,0.542-0.271,0.797l-0.099,0.147l0.109,0.029c0.138,0.007,0.245,0.035,0.324,0.088
					c0.452,0.3,0.501,1.083,0.145,2.348c-0.298,1.049-0.636,1.86-1.014,2.431L83.185,41.518z M89.049,31.887
					c-0.338,0.684-0.553,1.093-0.645,1.23c-0.195,0.295-0.467,0.428-0.814,0.396c-0.151-0.072-0.335-0.179-0.552-0.322
					c-0.452-0.301-0.616-0.606-0.493-0.922c-0.143-0.002-0.328,0.043-0.559,0.135c-0.617-0.349-0.916-0.517-0.896-0.504
					c-0.355-0.234-0.316-0.679,0.115-1.331l0.501-0.309c-0.138-0.176-0.154-0.344-0.05-0.502c0.014-0.021,0.043-0.043,0.088-0.069
					c0.026-0.04,0.047-0.07,0.06-0.089c0.026-0.04,0.058-0.133,0.095-0.279c-0.182-0.49-0.109-0.982,0.219-1.477l0.157-0.237
					c0.123-0.089,0.231-0.132,0.325-0.126l0.088,0.016c0.025-0.382,0.143-0.73,0.354-1.047c0.117-0.179,0.252-0.331,0.404-0.458
					l0.227-0.19l0.088-0.028l0.106-0.057l-0.021-0.098c-0.014-0.237,0.025-0.425,0.117-0.563l0.118-0.179l0.334-0.503l0.068-0.042
					c0.118-0.177,0.251-0.216,0.402-0.115c0.266,0.176,0.38,0.351,0.347,0.525l0.059-0.088c0.053-0.078,0.115-0.093,0.192-0.042
					l0.369,0.244c0.21,0.139,0.227,0.319,0.05,0.543l-0.391,0.591l-0.266,0.079l-0.009,0.334l-0.372,0.562
					c0.719,0.843,0.933,1.48,0.646,1.915c-0.013,0.019-0.078,0.074-0.195,0.167l-0.04,0.059c0.039,0.026,0.099,0.065,0.178,0.118
					c0.453,0.3,0.36,1.102-0.277,2.408L89.049,31.887z"/>
			</g>
		</g>
		<g>
			
				<linearGradient id="SVGID_3_" gradientUnits="userSpaceOnUse" x1="22.5708" y1="107.4912" x2="36.6118" y2="107.4912" gradientTransform="matrix(0.8338 0.552 -0.552 0.8338 166.3756 -66.74)">
				<stop  offset="0" style="stop-color:#FF0000"/>
				<stop  offset="1" style="stop-color:#C1272D"/>
			</linearGradient>
			<polygon fill="url(#SVGID_3_)" points="133.559,49.151 121.852,41.4 129.869,29.289 141.577,37.04 			"/>
			<g>
				<path fill="#FFFFFF" d="M129.573,41.881l-0.055,0.083c-0.091,0.139-0.214,0.204-0.368,0.195
					c0.051,0.165-0.096,0.506-0.438,1.022c-0.041,0.039-0.097,0.055-0.167,0.048l-0.04-0.007c0.046,0.11,0.045,0.203-0.004,0.276
					c-0.024,0.037-0.043,0.064-0.055,0.083l-0.092,0.139c-0.079,0.12-0.169,0.152-0.27,0.1c-0.027-0.019-0.064-0.043-0.112-0.074
					l-0.028-0.02l-0.039-0.125c-0.086,0.01-0.182-0.021-0.284-0.088c-0.106-0.085-0.119-0.179-0.036-0.283l0.201-0.305l0.143-0.005
					l0.002-0.038l-0.017-0.15c0.024-0.037,0.087-0.101,0.188-0.193c-0.166-0.109-0.2-0.238-0.103-0.386l-0.015-0.01
					c-0.378-0.25-0.381-0.835-0.01-1.757c0.009-0.073,0.035-0.142,0.078-0.208c0.043-0.063,0.111-0.117,0.205-0.161
					c-0.03-0.113-0.027-0.197,0.01-0.253c0.036-0.056,0.087-0.117,0.153-0.187c0.065-0.069,0.108-0.118,0.126-0.146
					c0.012-0.018,0.03-0.046,0.055-0.083c0.025-0.036,0.046-0.069,0.064-0.096c0.024-0.038,0.062-0.065,0.113-0.085
					c0.133,0.035,0.231,0.074,0.295,0.116c0.182,0.119,0.295,0.262,0.344,0.426c0.16-0.025,0.322,0.014,0.486,0.123l0.066,0.044
					l0.132,0.067c0.009,0.006,0.021,0.008,0.036,0.004l0.014,0.01c0.018,0.012,0.035,0.036,0.049,0.071l0.087,0.078l-0.001,0.059
					l-0.082,0.125c-0.238,0.359-0.422,0.536-0.55,0.531c0.073,0.101,0.06,0.268-0.042,0.499
					C129.514,41.553,129.499,41.739,129.573,41.881z M132.73,42.52c-0.043,0.024-0.096,0.043-0.156,0.056l-0.046,0.009
					c0.007,0.151-0.023,0.277-0.091,0.378c-0.006,0.01-0.016,0.022-0.027,0.042c-0.027,0.021-0.045,0.036-0.051,0.046
					c-0.574,0.548-1.21,0.797-1.906,0.746c0-0.04-0.025-0.102-0.074-0.188c-0.049,0.034-0.131,0.047-0.244,0.038l-0.274,0.415
					l-0.133,0.051l-0.046,0.01l0.041,0.146l-0.191,0.29c-0.056,0.083-0.135,0.104-0.239,0.062l-0.042-0.028
					c-0.082-0.055-0.133-0.128-0.152-0.219c-0.092,0.018-0.179,0-0.262-0.056c-0.086-0.07-0.106-0.149-0.061-0.239l0.018-0.027
					l0.006-0.036c0.018-0.028,0.047-0.062,0.086-0.102c0.031-0.047,0.052-0.078,0.064-0.098l0.046-0.069
					c0.048-0.073,0.122-0.124,0.22-0.151l0.07-0.015l-0.004-0.062l-0.013-0.027l0.052-0.146l0.073-0.11
					c0.036-0.056,0.082-0.125,0.138-0.208c0.027-0.101,0.053-0.17,0.076-0.207c0.056-0.083,0.127-0.149,0.211-0.198h0.061
					l0.018-0.127c0.013-0.033,0.037-0.076,0.074-0.131l0.009-0.015c0.024-0.036,0.127-0.064,0.308-0.085
					c0.181-0.02,0.352-0.102,0.511-0.248c0.013-0.019,0.038-0.048,0.077-0.088c0.024-0.037,0.043-0.064,0.055-0.083
					c0.178-0.267,0.285-0.561,0.324-0.879l0.036-0.057c0.003-0.023,0.014-0.051,0.032-0.078c0.012-0.019,0.029-0.034,0.051-0.046
					l-0.046-0.051c-0.097-0.155-0.157-0.275-0.182-0.357c-0.124-0.454-0.249-0.815-0.376-1.085c-0.024-0.122-0.02-0.238,0.014-0.35
					l-0.089-0.078c-0.331-0.723-0.425-1.189-0.284-1.401l0.008-0.015l0.079-0.027c-0.093-0.181-0.122-0.379-0.085-0.593
					l-0.027-0.078l0.045-0.011c0.211-0.417,0.328-0.644,0.354-0.681c0.055-0.083,0.121-0.138,0.203-0.163l0.081-0.026l-0.009-0.106
					c0.012-0.018,0.035-0.055,0.072-0.11c0.021-0.052,0.041-0.092,0.059-0.119c0.171-0.259,0.403-0.51,0.697-0.753
					c0.141-0.053,0.351-0.139,0.629-0.259l0.139,0.091c0.191-0.148,0.422-0.206,0.691-0.172h0.06l0.146-0.22l0.178-0.06
					l-0.051-0.132l0.227-0.343c0.072-0.109,0.162-0.136,0.27-0.076c0.074,0.049,0.131,0.112,0.172,0.191l0.146,0.019l0.146,0.096
					c0.092,0.074,0.098,0.171,0.018,0.29l-0.137,0.207c-0.007,0.01-0.013,0.019-0.019,0.028c-0.013,0.018-0.022,0.032-0.028,0.041
					c-0.036,0.056-0.115,0.084-0.234,0.084c0.064,0.082,0.031,0.225-0.104,0.429c-0.201,0.304-0.362,0.476-0.482,0.516l0.047,0.11
					c-0.016,0.042-0.044,0.098-0.087,0.162c-0.079,0.119-0.217,0.24-0.411,0.364c-0.193,0.123-0.323,0.223-0.387,0.3l-0.037,0.056
					c-0.018,0.027-0.047,0.081-0.087,0.16c-0.04,0.081-0.075,0.144-0.105,0.189c-0.073,0.111-0.166,0.201-0.279,0.272
					c0.052,0.142,0.075,0.276,0.071,0.405c0.033,0.248,0.162,0.585,0.385,1.011c0.246,0.468,0.398,0.828,0.458,1.079
					c-0.006,0.128-0.049,0.253-0.128,0.373l-0.046,0.069l0.052,0.013c0.064,0.004,0.115,0.017,0.151,0.041
					c0.212,0.141,0.234,0.507,0.067,1.1c-0.139,0.49-0.297,0.87-0.475,1.138L132.73,42.52z M135.477,38.012
					c-0.159,0.32-0.26,0.512-0.303,0.576c-0.092,0.138-0.219,0.2-0.381,0.186c-0.07-0.034-0.156-0.085-0.258-0.151
					c-0.213-0.14-0.289-0.284-0.232-0.431c-0.065-0.002-0.152,0.02-0.26,0.062c-0.29-0.163-0.43-0.242-0.42-0.235
					c-0.167-0.11-0.148-0.318,0.054-0.624l0.234-0.144c-0.065-0.083-0.072-0.161-0.023-0.235c0.006-0.01,0.021-0.02,0.042-0.032
					c0.012-0.019,0.021-0.033,0.027-0.042c0.012-0.019,0.027-0.062,0.044-0.131c-0.085-0.229-0.051-0.459,0.103-0.691l0.073-0.11
					c0.058-0.042,0.108-0.062,0.153-0.06l0.041,0.008c0.011-0.179,0.066-0.342,0.164-0.49c0.056-0.084,0.119-0.155,0.189-0.214
					l0.107-0.09l0.04-0.013l0.05-0.027l-0.01-0.046c-0.006-0.11,0.013-0.198,0.055-0.263l0.057-0.084l0.155-0.235l0.032-0.02
					c0.055-0.083,0.118-0.101,0.188-0.054c0.124,0.082,0.178,0.164,0.162,0.246l0.028-0.042c0.023-0.036,0.054-0.043,0.089-0.02
					l0.173,0.114c0.098,0.065,0.106,0.149,0.023,0.254l-0.183,0.276l-0.124,0.038l-0.004,0.155l-0.175,0.263
					c0.337,0.396,0.437,0.693,0.302,0.896c-0.006,0.009-0.036,0.035-0.091,0.078l-0.019,0.028c0.019,0.012,0.047,0.03,0.083,0.055
					c0.212,0.141,0.169,0.517-0.13,1.128L135.477,38.012z"/>
			</g>
		</g>
		<g>
			
				<linearGradient id="SVGID_4_" gradientUnits="userSpaceOnUse" x1="37.4165" y1="62.2959" x2="47.1606" y2="62.2959" gradientTransform="matrix(0.8338 0.552 -0.552 0.8338 166.3756 -66.74)">
				<stop  offset="0" style="stop-color:#FF0000"/>
				<stop  offset="1" style="stop-color:#C1272D"/>
			</linearGradient>
			<polygon fill="url(#SVGID_4_)" points="168.377,15.666 160.253,10.288 166.12,1.425 174.244,6.804 			"/>
			<g>
				<path fill="#FFFFFF" d="M165.76,10.396l-0.037,0.059c-0.064,0.097-0.15,0.142-0.257,0.136c0.035,0.115-0.067,0.352-0.304,0.711
					c-0.029,0.026-0.068,0.039-0.117,0.034l-0.027-0.005c0.031,0.077,0.031,0.141-0.003,0.192c-0.017,0.024-0.03,0.045-0.038,0.057
					l-0.064,0.097c-0.055,0.083-0.117,0.105-0.187,0.069c-0.02-0.012-0.046-0.029-0.078-0.052l-0.021-0.013l-0.026-0.088
					c-0.06,0.007-0.126-0.014-0.198-0.062c-0.074-0.059-0.082-0.123-0.025-0.197l0.141-0.211l0.099-0.003l0.001-0.027l-0.011-0.104
					c0.017-0.025,0.061-0.07,0.132-0.134c-0.117-0.077-0.141-0.166-0.072-0.27l-0.01-0.007c-0.262-0.174-0.266-0.58-0.007-1.221
					c0.006-0.052,0.024-0.1,0.054-0.145c0.03-0.045,0.077-0.082,0.145-0.112c-0.021-0.079-0.021-0.137,0.005-0.176
					c0.026-0.039,0.062-0.082,0.106-0.13c0.045-0.049,0.075-0.082,0.088-0.103c0.009-0.012,0.021-0.031,0.038-0.056
					c0.017-0.027,0.032-0.049,0.045-0.068c0.017-0.025,0.044-0.045,0.079-0.058c0.093,0.023,0.161,0.051,0.205,0.08
					c0.127,0.083,0.206,0.183,0.24,0.296c0.11-0.018,0.223,0.01,0.337,0.085l0.047,0.031l0.091,0.047
					c0.007,0.005,0.015,0.005,0.025,0.003l0.011,0.007c0.012,0.008,0.022,0.024,0.034,0.05l0.059,0.053v0.043l-0.059,0.086
					c-0.164,0.249-0.291,0.373-0.381,0.369c0.051,0.07,0.041,0.187-0.029,0.348C165.719,10.168,165.709,10.298,165.76,10.396z
					 M167.956,10.841c-0.03,0.017-0.067,0.029-0.108,0.038l-0.033,0.007c0.006,0.104-0.016,0.191-0.062,0.263
					c-0.004,0.006-0.011,0.016-0.02,0.028c-0.019,0.015-0.031,0.025-0.035,0.032c-0.398,0.382-0.841,0.555-1.325,0.52
					c-0.001-0.028-0.017-0.071-0.052-0.131c-0.035,0.023-0.091,0.032-0.17,0.026l-0.19,0.288l-0.093,0.035l-0.032,0.007l0.029,0.103
					l-0.134,0.201c-0.038,0.059-0.094,0.073-0.166,0.043l-0.029-0.02c-0.059-0.038-0.093-0.089-0.105-0.152
					c-0.064,0.013-0.125,0-0.183-0.037c-0.06-0.051-0.073-0.106-0.042-0.167l0.014-0.021l0.002-0.025
					c0.014-0.019,0.033-0.042,0.061-0.07c0.021-0.031,0.036-0.054,0.045-0.066l0.031-0.049c0.035-0.051,0.085-0.087,0.153-0.106
					l0.048-0.01l-0.002-0.043l-0.008-0.019l0.035-0.101l0.051-0.078c0.025-0.038,0.058-0.086,0.096-0.144
					c0.02-0.071,0.037-0.119,0.054-0.145c0.038-0.057,0.087-0.104,0.147-0.139h0.041l0.013-0.088
					c0.008-0.022,0.025-0.053,0.051-0.091l0.007-0.01c0.017-0.025,0.088-0.045,0.214-0.059c0.125-0.014,0.244-0.071,0.354-0.173
					c0.009-0.013,0.027-0.034,0.054-0.062c0.017-0.026,0.03-0.045,0.038-0.058c0.123-0.187,0.197-0.39,0.226-0.611l0.025-0.039
					c0.003-0.017,0.009-0.035,0.022-0.055c0.008-0.013,0.02-0.023,0.035-0.031L166.979,9.6c-0.067-0.109-0.108-0.192-0.126-0.249
					c-0.086-0.315-0.174-0.568-0.262-0.755c-0.018-0.086-0.014-0.167,0.01-0.243l-0.062-0.055c-0.23-0.502-0.296-0.827-0.199-0.975
					l0.007-0.01l0.055-0.019c-0.064-0.126-0.084-0.264-0.059-0.413l-0.02-0.054l0.031-0.007c0.146-0.291,0.229-0.449,0.245-0.475
					c0.038-0.058,0.085-0.096,0.142-0.114l0.057-0.017l-0.006-0.074c0.008-0.013,0.025-0.039,0.051-0.077
					c0.015-0.036,0.027-0.064,0.041-0.084c0.117-0.179,0.279-0.354,0.484-0.522c0.098-0.037,0.244-0.097,0.438-0.181l0.097,0.064
					c0.133-0.104,0.293-0.144,0.479-0.121l0.042,0.001l0.101-0.153l0.124-0.041l-0.035-0.092l0.157-0.238
					c0.051-0.076,0.113-0.094,0.188-0.054c0.052,0.034,0.092,0.079,0.119,0.134l0.102,0.013l0.102,0.066
					c0.063,0.052,0.068,0.118,0.013,0.201l-0.096,0.145c-0.004,0.007-0.009,0.014-0.013,0.02c-0.009,0.013-0.015,0.022-0.02,0.029
					c-0.024,0.038-0.08,0.058-0.162,0.058c0.045,0.059,0.021,0.157-0.073,0.299c-0.14,0.211-0.251,0.33-0.335,0.358l0.032,0.076
					c-0.011,0.03-0.03,0.068-0.06,0.113c-0.056,0.083-0.151,0.168-0.286,0.253c-0.135,0.086-0.226,0.156-0.269,0.209l-0.026,0.038
					c-0.013,0.021-0.033,0.058-0.061,0.112c-0.027,0.056-0.053,0.1-0.073,0.131c-0.051,0.078-0.116,0.142-0.195,0.189
					c0.037,0.099,0.054,0.192,0.05,0.282c0.024,0.173,0.112,0.406,0.268,0.703c0.171,0.325,0.277,0.576,0.319,0.75
					c-0.004,0.09-0.033,0.177-0.089,0.26l-0.032,0.048l0.036,0.009c0.044,0.003,0.079,0.013,0.104,0.029
					c0.147,0.099,0.164,0.353,0.048,0.765c-0.097,0.341-0.207,0.605-0.33,0.791L167.956,10.841z M169.865,7.705
					c-0.11,0.223-0.18,0.355-0.211,0.401c-0.062,0.096-0.15,0.139-0.264,0.129c-0.049-0.023-0.109-0.059-0.18-0.105
					c-0.147-0.097-0.201-0.197-0.162-0.3c-0.045-0.002-0.105,0.014-0.18,0.043c-0.202-0.113-0.3-0.168-0.293-0.164
					c-0.115-0.076-0.103-0.221,0.038-0.434l0.163-0.1c-0.045-0.058-0.051-0.112-0.017-0.164c0.005-0.006,0.015-0.013,0.028-0.022
					c0.009-0.013,0.016-0.022,0.02-0.028c0.008-0.013,0.02-0.043,0.031-0.092c-0.061-0.158-0.035-0.319,0.071-0.48l0.051-0.076
					c0.04-0.029,0.075-0.044,0.106-0.042l0.028,0.006c0.008-0.125,0.046-0.238,0.114-0.341c0.039-0.059,0.082-0.108,0.132-0.149
					l0.074-0.062l0.028-0.009l0.035-0.02l-0.007-0.032c-0.005-0.076,0.009-0.138,0.038-0.183l0.039-0.059l0.108-0.163l0.022-0.014
					c0.037-0.058,0.081-0.07,0.131-0.037c0.086,0.057,0.123,0.113,0.112,0.17l0.02-0.028c0.017-0.025,0.037-0.03,0.062-0.013
					l0.12,0.078c0.068,0.046,0.074,0.104,0.016,0.178l-0.127,0.191l-0.086,0.025l-0.003,0.109l-0.12,0.183
					c0.232,0.274,0.303,0.483,0.209,0.623c-0.004,0.007-0.025,0.025-0.064,0.055l-0.012,0.019c0.012,0.009,0.031,0.022,0.058,0.039
					c0.147,0.098,0.117,0.358-0.091,0.785L169.865,7.705z"/>
			</g>
		</g>
		<g>
			
				<linearGradient id="SVGID_5_" gradientUnits="userSpaceOnUse" x1="-7.4468" y1="98.1631" x2="11.1558" y2="98.1631" gradientTransform="matrix(0.8338 0.552 -0.552 0.8338 166.3756 -66.74)">
				<stop  offset="0" style="stop-color:#FF0000"/>
				<stop  offset="1" style="stop-color:#C1272D"/>
			</linearGradient>
			<polygon fill="url(#SVGID_5_)" points="116.113,29.391 100.604,19.123 111.359,2.874 126.87,13.143 			"/>
			<g>
				<path fill="#FFFFFF" d="M110.982,19.557l-0.07,0.106c-0.118,0.178-0.275,0.262-0.473,0.251c0.064,0.213-0.125,0.651-0.564,1.314
					c-0.053,0.051-0.124,0.072-0.215,0.063l-0.052-0.009c0.06,0.142,0.06,0.26-0.005,0.354c-0.031,0.048-0.055,0.083-0.07,0.107
					l-0.117,0.178c-0.103,0.154-0.217,0.197-0.346,0.13c-0.037-0.024-0.085-0.057-0.146-0.097l-0.036-0.024l-0.051-0.16
					c-0.11,0.01-0.232-0.027-0.366-0.115c-0.136-0.108-0.153-0.229-0.046-0.363l0.259-0.392l0.183-0.007l0.003-0.049l-0.021-0.193
					c0.031-0.048,0.111-0.13,0.242-0.249c-0.214-0.142-0.258-0.308-0.133-0.497l-0.018-0.012c-0.486-0.322-0.49-1.075-0.014-2.261
					c0.013-0.095,0.045-0.184,0.101-0.267c0.055-0.082,0.144-0.151,0.265-0.207c-0.039-0.146-0.035-0.255,0.012-0.326
					s0.113-0.151,0.197-0.241c0.084-0.089,0.14-0.151,0.162-0.187c0.016-0.023,0.039-0.059,0.07-0.106
					c0.032-0.048,0.06-0.089,0.083-0.124c0.032-0.048,0.08-0.083,0.146-0.107c0.171,0.045,0.298,0.094,0.38,0.146
					c0.232,0.154,0.379,0.339,0.441,0.549c0.207-0.033,0.414,0.019,0.625,0.158l0.087,0.058l0.169,0.086
					c0.012,0.009,0.027,0.011,0.047,0.006l0.018,0.012c0.023,0.015,0.043,0.047,0.063,0.093l0.11,0.099l-0.001,0.077l-0.106,0.16
					c-0.306,0.463-0.541,0.689-0.706,0.685c0.095,0.13,0.076,0.343-0.055,0.641C110.906,19.136,110.887,19.374,110.982,19.557z
					 M115.045,20.378c-0.057,0.031-0.123,0.055-0.201,0.071l-0.061,0.013c0.01,0.193-0.029,0.355-0.115,0.485
					c-0.008,0.012-0.02,0.029-0.035,0.053c-0.036,0.028-0.059,0.048-0.065,0.06c-0.739,0.705-1.558,1.025-2.453,0.96
					c-0.001-0.051-0.031-0.131-0.095-0.242c-0.063,0.044-0.168,0.062-0.314,0.048l-0.354,0.535l-0.171,0.066l-0.059,0.011
					l0.053,0.19L110.928,23c-0.07,0.107-0.172,0.134-0.308,0.078l-0.053-0.034c-0.106-0.071-0.173-0.166-0.196-0.284
					c-0.119,0.024-0.23,0.002-0.338-0.07c-0.109-0.09-0.137-0.192-0.078-0.308l0.023-0.035l0.008-0.047
					c0.022-0.036,0.06-0.079,0.109-0.131c0.04-0.06,0.067-0.102,0.084-0.124l0.059-0.09c0.062-0.095,0.156-0.16,0.283-0.195
					l0.09-0.019l-0.005-0.08l-0.016-0.034l0.065-0.188l0.095-0.143c0.048-0.071,0.106-0.161,0.177-0.267
					c0.035-0.13,0.068-0.22,0.1-0.267c0.07-0.107,0.162-0.191,0.271-0.255l0.077-0.001l0.023-0.164
					c0.015-0.041,0.046-0.097,0.094-0.168l0.011-0.017c0.032-0.048,0.164-0.084,0.396-0.109c0.232-0.026,0.452-0.132,0.657-0.32
					c0.017-0.024,0.049-0.062,0.1-0.113c0.032-0.048,0.055-0.083,0.071-0.106c0.227-0.344,0.365-0.721,0.415-1.132l0.048-0.072
					c0.004-0.03,0.018-0.064,0.041-0.1c0.016-0.023,0.037-0.044,0.064-0.061l-0.059-0.063c-0.123-0.201-0.201-0.354-0.233-0.461
					c-0.159-0.584-0.32-1.049-0.483-1.396c-0.031-0.157-0.025-0.308,0.017-0.449l-0.114-0.101c-0.424-0.93-0.546-1.531-0.365-1.804
					l0.012-0.019l0.101-0.035c-0.12-0.232-0.155-0.487-0.108-0.763l-0.037-0.102l0.06-0.012c0.271-0.536,0.422-0.829,0.453-0.877
					c0.071-0.106,0.157-0.177,0.262-0.211l0.104-0.032l-0.012-0.136c0.016-0.024,0.047-0.072,0.094-0.144
					c0.027-0.067,0.052-0.118,0.076-0.154c0.219-0.331,0.519-0.654,0.896-0.967c0.182-0.068,0.451-0.18,0.81-0.334l0.179,0.117
					c0.245-0.191,0.542-0.266,0.889-0.222l0.076-0.001l0.188-0.281l0.229-0.076l-0.066-0.17l0.293-0.441
					c0.092-0.14,0.208-0.174,0.346-0.099c0.096,0.063,0.168,0.146,0.221,0.248l0.188,0.022l0.187,0.123
					c0.117,0.096,0.125,0.22,0.023,0.374l-0.177,0.266c-0.009,0.013-0.016,0.024-0.023,0.036c-0.017,0.024-0.028,0.042-0.036,0.054
					c-0.047,0.071-0.148,0.107-0.301,0.107c0.082,0.106,0.038,0.29-0.135,0.551c-0.259,0.392-0.465,0.613-0.619,0.665l0.061,0.142
					c-0.021,0.055-0.058,0.125-0.113,0.207c-0.102,0.155-0.278,0.311-0.528,0.469c-0.249,0.159-0.417,0.288-0.497,0.387
					l-0.049,0.072c-0.023,0.035-0.061,0.104-0.111,0.206c-0.051,0.104-0.096,0.185-0.135,0.244c-0.095,0.143-0.215,0.259-0.36,0.35
					c0.067,0.182,0.099,0.355,0.092,0.521c0.042,0.319,0.208,0.753,0.493,1.302c0.317,0.602,0.515,1.065,0.591,1.387
					c-0.007,0.166-0.062,0.326-0.164,0.48l-0.06,0.089l0.066,0.019c0.083,0.003,0.148,0.021,0.195,0.052
					c0.273,0.181,0.303,0.652,0.088,1.414c-0.18,0.632-0.383,1.12-0.611,1.464L115.045,20.378z M118.576,14.579
					c-0.203,0.411-0.333,0.657-0.389,0.74c-0.117,0.178-0.281,0.258-0.489,0.238c-0.091-0.043-0.202-0.108-0.333-0.194
					c-0.272-0.181-0.371-0.364-0.298-0.555c-0.085-0.002-0.196,0.026-0.335,0.081c-0.372-0.21-0.553-0.311-0.541-0.303
					c-0.213-0.143-0.189-0.409,0.07-0.803l0.301-0.185c-0.083-0.106-0.092-0.208-0.029-0.303c0.008-0.013,0.025-0.025,0.054-0.042
					c0.016-0.023,0.028-0.042,0.036-0.054c0.016-0.023,0.034-0.08,0.057-0.167c-0.109-0.295-0.066-0.592,0.131-0.891l0.094-0.143
					c0.074-0.054,0.141-0.079,0.197-0.075l0.053,0.009c0.015-0.229,0.086-0.439,0.212-0.63c0.071-0.108,0.152-0.199,0.244-0.276
					l0.137-0.114l0.054-0.017l0.063-0.036l-0.013-0.059c-0.009-0.142,0.016-0.255,0.07-0.338l0.071-0.107l0.2-0.304l0.043-0.024
					c0.07-0.107,0.15-0.13,0.242-0.069c0.16,0.105,0.229,0.212,0.208,0.316l0.035-0.054c0.031-0.047,0.07-0.056,0.116-0.025
					l0.223,0.147c0.125,0.084,0.137,0.191,0.029,0.326l-0.234,0.355l-0.16,0.049l-0.006,0.201l-0.224,0.338
					c0.433,0.507,0.562,0.893,0.39,1.153c-0.008,0.011-0.049,0.045-0.119,0.101l-0.023,0.035c0.023,0.016,0.061,0.04,0.107,0.07
					c0.272,0.182,0.217,0.665-0.168,1.451L118.576,14.579z"/>
			</g>
		</g>
		<g>
			
				<linearGradient id="SVGID_6_" gradientUnits="userSpaceOnUse" x1="18.1782" y1="81.7295" x2="33.2368" y2="81.7295" gradientTransform="matrix(0.8338 0.552 -0.552 0.8338 166.3756 -66.74)">
				<stop  offset="0" style="stop-color:#009245"/>
				<stop  offset="1" style="stop-color:#006837"/>
			</linearGradient>
			<polygon fill="url(#SVGID_6_)" points="144.574,26.4 132.018,18.088 140.818,4.794 153.375,13.105 			"/>
			<g>
				<path fill="#FFFFFF" d="M140.557,18.257l-0.055,0.083c-0.092,0.139-0.215,0.204-0.367,0.194c0.05,0.166-0.098,0.507-0.438,1.022
					c-0.042,0.039-0.097,0.056-0.167,0.05l-0.041-0.007c0.047,0.109,0.047,0.201-0.003,0.275c-0.024,0.036-0.042,0.064-0.055,0.083
					l-0.091,0.138c-0.08,0.12-0.17,0.153-0.27,0.101c-0.029-0.02-0.066-0.043-0.112-0.074l-0.029-0.02l-0.038-0.124
					c-0.086,0.008-0.182-0.021-0.285-0.09c-0.106-0.084-0.119-0.178-0.037-0.282l0.202-0.305l0.142-0.004l0.002-0.039l-0.016-0.15
					c0.025-0.038,0.088-0.102,0.189-0.193c-0.166-0.109-0.201-0.238-0.104-0.387l-0.014-0.01c-0.378-0.249-0.381-0.833-0.012-1.756
					c0.011-0.072,0.037-0.142,0.079-0.206c0.043-0.064,0.11-0.119,0.206-0.162c-0.031-0.113-0.028-0.197,0.008-0.253
					c0.037-0.055,0.088-0.118,0.153-0.187c0.065-0.069,0.109-0.118,0.128-0.146c0.012-0.018,0.029-0.046,0.054-0.082
					c0.024-0.038,0.046-0.07,0.064-0.098c0.024-0.036,0.062-0.064,0.113-0.084c0.134,0.035,0.231,0.073,0.295,0.115
					c0.181,0.12,0.296,0.263,0.343,0.426c0.161-0.025,0.322,0.016,0.486,0.123l0.066,0.044l0.131,0.068
					c0.012,0.007,0.022,0.008,0.038,0.003l0.015,0.01c0.017,0.012,0.032,0.036,0.048,0.072l0.085,0.076v0.061l-0.082,0.125
					c-0.238,0.358-0.421,0.536-0.549,0.531c0.072,0.101,0.06,0.267-0.043,0.498C140.496,17.93,140.482,18.116,140.557,18.257z
					 M143.713,18.896c-0.043,0.023-0.096,0.042-0.156,0.055l-0.047,0.01c0.008,0.15-0.023,0.277-0.09,0.378
					c-0.006,0.009-0.016,0.023-0.027,0.042c-0.027,0.021-0.045,0.037-0.05,0.046c-0.575,0.548-1.212,0.796-1.907,0.745
					c0-0.04-0.023-0.101-0.073-0.188c-0.05,0.034-0.132,0.048-0.244,0.038l-0.274,0.414l-0.133,0.052l-0.046,0.009l0.041,0.147
					l-0.192,0.29c-0.055,0.083-0.133,0.104-0.238,0.061l-0.041-0.027c-0.084-0.056-0.135-0.128-0.153-0.221
					c-0.093,0.02-0.179,0.002-0.263-0.055c-0.086-0.069-0.105-0.149-0.061-0.238l0.019-0.027l0.006-0.037
					c0.019-0.027,0.046-0.061,0.085-0.101c0.031-0.047,0.053-0.079,0.064-0.098l0.047-0.069c0.049-0.074,0.121-0.125,0.22-0.151
					l0.069-0.015l-0.004-0.062l-0.012-0.027l0.052-0.145l0.073-0.111c0.037-0.055,0.082-0.124,0.138-0.207
					c0.026-0.102,0.052-0.171,0.077-0.207c0.055-0.083,0.125-0.148,0.209-0.198h0.062l0.017-0.129
					c0.012-0.031,0.036-0.074,0.073-0.13l0.01-0.014c0.023-0.036,0.127-0.063,0.307-0.085c0.182-0.019,0.352-0.101,0.512-0.248
					c0.012-0.018,0.037-0.048,0.076-0.087c0.024-0.037,0.043-0.065,0.055-0.083c0.178-0.269,0.284-0.562,0.324-0.881l0.036-0.056
					c0.003-0.023,0.014-0.05,0.032-0.077c0.012-0.02,0.029-0.034,0.05-0.047l-0.044-0.051c-0.097-0.154-0.157-0.274-0.183-0.357
					c-0.124-0.454-0.249-0.814-0.376-1.084c-0.023-0.122-0.021-0.239,0.014-0.349l-0.088-0.079c-0.33-0.722-0.426-1.189-0.285-1.401
					l0.01-0.014l0.078-0.027c-0.094-0.181-0.121-0.379-0.085-0.594l-0.029-0.078l0.047-0.009c0.21-0.417,0.328-0.645,0.353-0.681
					c0.055-0.084,0.122-0.139,0.203-0.165l0.082-0.025l-0.011-0.105c0.013-0.02,0.036-0.056,0.073-0.111
					c0.021-0.053,0.041-0.092,0.059-0.12c0.171-0.258,0.403-0.509,0.697-0.752c0.141-0.053,0.35-0.139,0.629-0.259l0.139,0.092
					c0.191-0.15,0.422-0.207,0.69-0.173l0.06-0.001l0.146-0.22l0.178-0.058l-0.052-0.133l0.227-0.342
					c0.073-0.11,0.163-0.136,0.271-0.077c0.073,0.049,0.13,0.113,0.171,0.192l0.146,0.018l0.146,0.097
					c0.091,0.073,0.097,0.17,0.019,0.289l-0.138,0.207c-0.006,0.01-0.013,0.02-0.019,0.028c-0.012,0.02-0.021,0.032-0.027,0.041
					c-0.037,0.056-0.115,0.084-0.234,0.084c0.064,0.083,0.029,0.226-0.104,0.428c-0.2,0.304-0.362,0.477-0.481,0.517l0.046,0.11
					c-0.015,0.042-0.044,0.098-0.086,0.161c-0.08,0.12-0.217,0.241-0.411,0.364c-0.194,0.124-0.324,0.224-0.387,0.301l-0.037,0.056
					c-0.018,0.027-0.047,0.081-0.087,0.16c-0.04,0.081-0.075,0.145-0.104,0.189c-0.074,0.111-0.167,0.201-0.281,0.271
					c0.053,0.142,0.076,0.276,0.072,0.404c0.033,0.25,0.162,0.586,0.383,1.012c0.247,0.468,0.4,0.828,0.459,1.078
					c-0.005,0.129-0.048,0.254-0.127,0.372l-0.047,0.07l0.052,0.013c0.064,0.004,0.115,0.018,0.152,0.042
					c0.212,0.141,0.233,0.507,0.067,1.099c-0.14,0.491-0.297,0.871-0.475,1.139L143.713,18.896z M146.457,14.39
					c-0.158,0.319-0.26,0.511-0.302,0.575c-0.091,0.139-0.219,0.2-0.381,0.185c-0.071-0.033-0.157-0.084-0.258-0.15
					c-0.212-0.141-0.289-0.283-0.231-0.432c-0.066-0.001-0.152,0.021-0.262,0.063c-0.288-0.163-0.428-0.241-0.42-0.236
					c-0.166-0.109-0.146-0.317,0.055-0.622l0.234-0.145c-0.064-0.082-0.072-0.161-0.023-0.236c0.006-0.008,0.021-0.019,0.042-0.03
					c0.013-0.02,0.021-0.033,0.028-0.043c0.012-0.018,0.027-0.062,0.044-0.13c-0.085-0.229-0.052-0.459,0.102-0.69l0.073-0.111
					c0.059-0.042,0.108-0.062,0.152-0.06l0.042,0.007c0.011-0.178,0.067-0.342,0.165-0.489c0.055-0.083,0.117-0.154,0.189-0.214
					l0.105-0.089l0.042-0.013l0.05-0.028l-0.01-0.046c-0.007-0.109,0.012-0.198,0.055-0.262l0.055-0.084l0.156-0.236l0.032-0.019
					c0.055-0.083,0.118-0.103,0.188-0.055c0.125,0.082,0.178,0.164,0.162,0.245l0.027-0.041c0.023-0.036,0.055-0.043,0.09-0.02
					l0.173,0.114c0.099,0.065,0.106,0.149,0.023,0.255l-0.183,0.275l-0.123,0.037l-0.006,0.156l-0.174,0.264
					c0.336,0.394,0.437,0.692,0.303,0.896c-0.006,0.008-0.037,0.034-0.092,0.077l-0.019,0.028c0.019,0.012,0.046,0.03,0.083,0.055
					c0.213,0.141,0.168,0.516-0.13,1.128L146.457,14.39z"/>
			</g>
		</g>
	</g>
	<text transform="matrix(1.1114 0 0 1 25.0005 96.9995)" fill="#FFFFFF" font-family="'MyriadPro-Bold'" font-size="35.4873">CA</text>
</g>
</svg>
