<?xml version="1.0" encoding="utf-8"?>
<!-- Generator: Adobe Illustrator 16.0.4, SVG Export Plug-In . SVG Version: 6.00 Build 0)  -->
<!DOCTYPE svg PUBLIC "-//W3C//DTD SVG 1.1//EN" "http://www.w3.org/Graphics/SVG/1.1/DTD/svg11.dtd">
<svg version="1.1" id="Layer_1" xmlns="http://www.w3.org/2000/svg" xmlns:xlink="http://www.w3.org/1999/xlink" x="0px" y="0px"
	 width="334.692px" height="89.717px" viewBox="0 0 334.692 89.717" enable-background="new 0 0 334.692 89.717"
	 xml:space="preserve">
<g>
	<g>
		<path fill="#FFFFFF" d="M31.446,72.597l5.912-2.797l6.027-2.582l6.12-2.365l6.219-2.114l6.3-1.89l6.383-1.62l6.452-1.358
			l6.511-1.094c2.185-0.271,4.372-0.543,6.563-0.781c2.198-0.16,4.396-0.352,6.6-0.485c2.206-0.061,4.413-0.156,6.622-0.188
			c2.208,0.045,4.421,0.038,6.63,0.134c2.205,0.16,4.415,0.286,6.62,0.478c2.197,0.266,4.399,0.502,6.594,0.795l6.552,1.111
			l6.492,1.436l0.052,0.012l0.109,0.036l9.01,2.969l0.103,0.033l0.098,0.043l12.167,5.35c4.045,1.771,8.071,3.567,12.111,5.286
			c2.017,0.878,4.051,1.684,6.078,2.521c2.041,0.782,4.07,1.612,6.128,2.333c2.047,0.768,4.114,1.449,6.183,2.132
			c1.031,0.354,2.08,0.633,3.119,0.953c1.042,0.307,2.077,0.644,3.129,0.906l3.143,0.841l3.168,0.719
			c1.054,0.256,2.116,0.45,3.182,0.634c1.064,0.179,2.125,0.409,3.195,0.548c2.14,0.28,4.279,0.589,6.433,0.71l1.612,0.126
			l0.403,0.032l0.051,0.071c0.09,0.002-0.095,0.066-0.066,0.066h0.026h0.104l0.207-0.064l0.829-0.026l3.317,0.026
			c2.216,0.043,4.419,0.053,6.615,0.053c2.2,0.004,4.403,0.033,6.596-0.034c2.192-0.062,4.397-0.052,6.583-0.174l6.562-0.34
			l-0.151,0.022l15.075-2.622l-0.107,0.026l7.639-2.21l7.587-2.451l15.114-5.206l-7.292,3.29l-7.354,3.162
			c-2.472,1.01-4.959,1.989-7.446,2.973l-7.567,2.707l-0.02,0.007l-0.089,0.021l-14.924,3.379l-0.061,0.014l-0.091,0.009
			l-6.667,0.66c-2.226,0.201-4.446,0.268-6.671,0.408c-2.226,0.146-4.445,0.188-6.668,0.263c-2.225,0.077-4.443,0.138-6.65,0.172
			l-3.317,0.057L213.8,89.66l-0.207-0.063h-0.104l-0.197,0.062l-0.424,0.01l-1.696-0.079c-2.269-0.082-4.515-0.347-6.766-0.595
			c-1.126-0.123-2.235-0.332-3.354-0.497c-1.118-0.169-2.234-0.348-3.336-0.59l-3.317-0.679l-3.282-0.804
			c-1.1-0.255-2.18-0.565-3.259-0.883c-1.076-0.323-2.168-0.605-3.231-0.963c-2.137-0.688-4.273-1.377-6.375-2.147
			c-2.121-0.728-4.192-1.558-6.286-2.344c-2.066-0.837-4.15-1.645-6.195-2.519c-4.12-1.696-8.169-3.51-12.206-5.331l-12.086-5.414
			l0.2,0.076l-8.989-3.031l0.161,0.048l-6.241-1.501l-6.308-1.207c-2.116-0.326-4.241-0.6-6.362-0.902
			c-2.13-0.23-4.268-0.396-6.402-0.598l-6.429-0.326c-2.146-0.045-4.294-0.025-6.443-0.042c-2.148,0.056-4.296,0.168-6.447,0.249
			l-6.438,0.524l-6.423,0.763l-6.396,1.027L62.6,63.174l-6.325,1.48l-6.276,1.711l-6.234,1.893l-6.179,2.084L31.446,72.597z"/>
	</g>
	<path fill="#FFFFFF" d="M54.461,0H11.777C8.223,0,5.312,2.578,5.312,5.733v73.402c0,3.154,2.911,5.736,6.466,5.736h42.684
		c3.556,0,6.468-2.577,6.468-5.733V5.733C60.929,2.578,58.017,0,54.461,0z M26.293,4.133h13.654c0.434,0,0.783,0.31,0.783,0.695
		c0,0.384-0.35,0.693-0.783,0.693H26.293c-0.433,0-0.783-0.31-0.783-0.693C25.51,4.442,25.86,4.133,26.293,4.133z M33.12,82.007
		c-1.786,0-3.234-1.284-3.234-2.868c0-1.583,1.448-2.865,3.234-2.865c1.784,0,3.232,1.282,3.232,2.865
		C36.353,80.723,34.904,82.007,33.12,82.007z M56.43,74.263H9.812V9.093H56.43V74.263z"/>
	<path fill="#29ABE2" stroke="#FFFFFF" stroke-width="2" stroke-miterlimit="10" d="M32.639,61.595
		c-1.685,0.842-5.474,1.744-10.406,1.744C8.218,63.339,1,54.617,1,43.068c0-13.835,9.864-21.534,22.135-21.534
		c4.752,0,8.361,0.963,9.985,1.805l-1.865,7.278c-1.864-0.782-4.451-1.504-7.699-1.504c-7.277,0-12.932,4.391-12.932,13.414
		c0,8.12,4.812,13.232,12.992,13.232c2.767,0,5.835-0.602,7.639-1.323L32.639,61.595z"/>
	<g>
		<path fill="#3FA9F5" d="M55.193,63.707l-3.128-10.406H41.959l-2.887,10.406H27.458l13.001-42.541h13.507l13.191,42.541H55.193z
			 M50.149,44.444L48,37.125c-0.376-1.255-0.752-2.67-1.111-4.078c-0.32,1.413-0.649,2.835-0.998,4.067l-2.05,7.33H50.149z"/>
		<path fill="#FFFFFF" d="M53.229,22.166l12.571,40.541h-9.864l-3.128-10.406H41.199l-2.887,10.406h-9.504l12.391-40.541H53.229
			 M42.522,45.444h8.963l-2.526-8.602c-0.722-2.406-1.443-5.414-2.045-7.82h-0.12c-0.602,2.406-1.203,5.475-1.865,7.82
			L42.522,45.444 M54.703,20.166h-1.474h-12.03h-1.48l-0.433,1.416L26.896,62.122l-0.79,2.585h2.703h9.504h1.521l0.407-1.466
			l2.48-8.94h8.602l2.7,8.982l0.428,1.424h1.487h9.864h2.714l-0.804-2.593L55.14,21.574L54.703,20.166L54.703,20.166z
			 M45.159,43.444l1.696-6.062c0.029-0.103,0.057-0.206,0.086-0.31c0.034,0.116,0.068,0.231,0.103,0.346l1.77,6.027H45.159
			L45.159,43.444z"/>
	</g>
	<g>
		<path fill="#FFFFFF" d="M208.524,20.337c3.043-0.488,7.011-0.76,11.194-0.76c6.957,0,11.468,1.249,15,3.912
			c3.804,2.826,6.195,7.337,6.195,13.804c0,7.011-2.555,11.848-6.087,14.837c-3.858,3.206-9.728,4.728-16.901,4.728
			c-4.293,0-7.337-0.271-9.401-0.544V20.337z M216.839,50.228c0.706,0.163,1.848,0.163,2.88,0.163
			c7.5,0.055,12.392-4.076,12.392-12.826c0.054-7.608-4.402-11.63-11.521-11.63c-1.849,0-3.044,0.164-3.75,0.326V50.228z"/>
		<path fill="#FFFFFF" d="M260.523,45.637h-9.434v6.086h10.537v4.755h-16.356V30.84h15.824v4.755H251.09v5.325h9.434V45.637z"/>
		<path fill="#FFFFFF" d="M271.556,49.896l-1.825,6.581h-6.011l7.836-25.638h7.607l7.95,25.638h-6.238l-1.978-6.581H271.556z
			 M278.061,45.561l-1.598-5.439c-0.457-1.521-0.913-3.423-1.293-4.944h-0.076c-0.381,1.521-0.761,3.461-1.18,4.944l-1.521,5.439
			H278.061z"/>
		<path fill="#FFFFFF" d="M290.538,30.84h5.819v20.769h10.194v4.869h-16.014V30.84z"/>
		<path fill="#FFFFFF" d="M319.693,61.205v-5.163c-3.641-0.163-7.174-1.141-9.238-2.337l1.63-6.358
			c2.282,1.25,5.489,2.392,9.022,2.392c3.097,0,5.217-1.195,5.217-3.369c0-2.065-1.739-3.37-5.761-4.729
			c-5.815-1.956-9.782-4.673-9.782-9.945c0-4.782,3.369-8.532,9.184-9.673v-5.163h5.326v4.782c3.642,0.163,6.087,0.924,7.881,1.793
			l-1.576,6.142c-1.413-0.598-3.914-1.848-7.826-1.848c-3.532,0-4.674,1.521-4.674,3.043c0,1.794,1.902,2.935,6.521,4.674
			c6.467,2.282,9.075,5.271,9.075,10.163c0,4.837-3.423,8.967-9.673,10.054v5.543H319.693z"/>
	</g>
	<g>
		<path fill="#FFFFFF" d="M69.726,31.336h4.957l-0.344,2.172c1.107-0.928,2.258-1.59,3.453-1.982s2.305-0.59,3.328-0.59
			c1.164,0,2.223,0.252,3.174,0.754c0.95,0.504,1.759,1.387,2.426,2.645c0.584-0.613,1.207-1.137,1.865-1.57
			c0.658-0.432,1.329-0.791,2.012-1.074c0.682-0.283,1.367-0.486,2.057-0.613c0.688-0.125,1.348-0.189,1.978-0.189
			c1.164,0,2.204,0.189,3.12,0.568c0.916,0.377,1.676,0.904,2.275,1.58c0.602,0.678,1.03,1.473,1.287,2.385s0.3,1.904,0.131,2.975
			l-2.689,16.973h-4.957l2.535-16.004c0.135-0.852,0.132-1.551-0.01-2.102c-0.141-0.551-0.361-0.992-0.664-1.322
			c-0.301-0.33-0.662-0.562-1.082-0.697c-0.418-0.133-0.849-0.199-1.289-0.199c-0.614,0-1.254,0.141-1.921,0.424
			s-1.288,0.682-1.864,1.193c-0.577,0.512-1.078,1.113-1.502,1.805c-0.426,0.693-0.701,1.441-0.828,2.242l-2.322,14.66h-4.908
			l2.535-16.004c0.135-0.852,0.13-1.551-0.01-2.102c-0.143-0.551-0.355-0.992-0.641-1.322c-0.287-0.33-0.628-0.562-1.023-0.697
			c-0.396-0.133-0.782-0.199-1.16-0.199c-0.787,0-1.545,0.188-2.273,0.566c-0.729,0.377-1.392,0.857-1.986,1.439
			c-0.596,0.582-1.091,1.221-1.484,1.912c-0.393,0.693-0.639,1.354-0.738,1.982l-2.285,14.424h-4.957L69.726,31.336z"/>
		<path fill="#FFFFFF" d="M105.802,43.375c0.271-1.715,0.77-3.328,1.498-4.84c0.727-1.51,1.652-2.828,2.773-3.953
			c1.123-1.125,2.428-2.014,3.916-2.668c1.488-0.652,3.131-0.979,4.924-0.979c1.795,0,3.34,0.326,4.637,0.979
			c1.297,0.654,2.334,1.543,3.107,2.668s1.293,2.443,1.557,3.953c0.266,1.512,0.262,3.125-0.01,4.84
			c-0.271,1.717-0.779,3.326-1.521,4.828c-0.741,1.502-1.677,2.816-2.807,3.941c-1.131,1.127-2.448,2.012-3.951,2.656
			c-1.502,0.645-3.15,0.969-4.945,0.969c-1.793,0-3.332-0.324-4.615-0.969c-1.282-0.645-2.307-1.529-3.072-2.656
			c-0.766-1.125-1.274-2.439-1.523-3.941C105.519,46.701,105.53,45.092,105.802,43.375z M110.712,43.375
			c-0.18,1.133-0.205,2.203-0.072,3.211c0.131,1.008,0.404,1.889,0.82,2.645c0.416,0.754,0.975,1.35,1.677,1.781
			c0.702,0.434,1.534,0.65,2.493,0.65c0.961,0,1.859-0.217,2.7-0.65c0.841-0.432,1.591-1.027,2.254-1.781
			c0.663-0.756,1.218-1.637,1.67-2.645c0.45-1.008,0.766-2.078,0.944-3.211c0.183-1.148,0.207-2.227,0.076-3.234
			c-0.133-1.006-0.408-1.889-0.832-2.643c-0.424-0.756-0.986-1.354-1.688-1.795c-0.701-0.439-1.532-0.66-2.492-0.66
			s-1.859,0.221-2.701,0.66c-0.842,0.441-1.588,1.039-2.243,1.795c-0.655,0.754-1.208,1.637-1.658,2.643
			C111.208,41.148,110.894,42.227,110.712,43.375z"/>
		<path fill="#FFFFFF" d="M136.069,22.178h4.957l-1.768,11.164c0.967-0.738,1.984-1.324,3.053-1.758
			c1.067-0.432,2.074-0.648,3.018-0.648c1.701,0,3.135,0.326,4.307,0.979c1.172,0.654,2.094,1.543,2.764,2.668
			c0.672,1.125,1.104,2.447,1.297,3.967c0.191,1.518,0.15,3.143-0.123,4.873c-0.274,1.732-0.752,3.354-1.432,4.863
			c-0.68,1.512-1.537,2.83-2.573,3.955s-2.251,2.014-3.646,2.666c-1.393,0.654-2.939,0.98-4.641,0.98
			c-1.006,0-1.959-0.197-2.856-0.59s-1.687-0.984-2.364-1.771l-0.291,1.842h-4.957L136.069,22.178z M144.442,35.043
			c-0.85,0-1.637,0.209-2.365,0.625c-0.727,0.418-1.38,0.992-1.961,1.723c-0.58,0.732-1.077,1.586-1.492,2.562
			c-0.412,0.975-0.717,2.021-0.91,3.139l-0.052,0.33c-0.183,1.15-0.231,2.232-0.147,3.246c0.083,1.016,0.297,1.9,0.641,2.656
			c0.346,0.756,0.821,1.35,1.43,1.783c0.607,0.432,1.346,0.648,2.211,0.648c0.881,0,1.699-0.217,2.451-0.648
			c0.754-0.434,1.426-1.027,2.018-1.783s1.094-1.641,1.506-2.656c0.413-1.014,0.711-2.096,0.893-3.246
			c0.182-1.148,0.229-2.234,0.139-3.258c-0.091-1.021-0.311-1.912-0.664-2.666c-0.352-0.756-0.836-1.354-1.45-1.795
			C146.073,35.264,145.324,35.043,144.442,35.043z"/>
		<path fill="#FFFFFF" d="M167.017,22.178l-0.803,5.074h-4.91l0.803-5.074H167.017z M165.567,31.336l-3.807,24.031h-4.91
			l3.807-24.031H165.567z"/>
		<path fill="#FFFFFF" d="M177.263,22.178l-5.258,33.189h-4.91l5.258-33.189H177.263z"/>
		<path fill="#FFFFFF" d="M183.562,44.557c-0.106,0.975-0.064,1.896,0.129,2.762s0.51,1.629,0.948,2.289s0.989,1.184,1.651,1.57
			c0.662,0.385,1.42,0.578,2.27,0.578c2.895,0,5.121-1.535,6.678-4.604h4.58c-0.504,1.385-1.178,2.613-2.023,3.684
			c-0.847,1.07-1.801,1.975-2.861,2.713c-1.062,0.74-2.193,1.303-3.396,1.689c-1.201,0.385-2.408,0.578-3.62,0.578
			c-1.731,0-3.237-0.348-4.521-1.039c-1.283-0.693-2.32-1.621-3.112-2.785c-0.791-1.164-1.332-2.521-1.622-4.072
			c-0.289-1.551-0.299-3.184-0.026-4.898c0.255-1.605,0.761-3.141,1.521-4.604c0.759-1.463,1.713-2.75,2.865-3.859
			s2.471-1.99,3.961-2.645c1.488-0.652,3.098-0.979,4.828-0.979c1.668,0,3.129,0.295,4.381,0.885s2.268,1.404,3.047,2.443
			c0.781,1.039,1.312,2.273,1.598,3.705c0.285,1.434,0.295,2.982,0.031,4.65l-0.307,1.938H183.562z M196.081,40.779
			c0.051-0.818-0.025-1.578-0.229-2.279c-0.205-0.699-0.525-1.305-0.964-1.816s-0.992-0.914-1.661-1.205
			c-0.672-0.291-1.439-0.436-2.305-0.436c-0.787,0-1.543,0.152-2.268,0.459c-0.727,0.309-1.386,0.725-1.98,1.252
			c-0.596,0.527-1.109,1.137-1.541,1.83c-0.434,0.691-0.75,1.424-0.951,2.195H196.081z"/>
	</g>
</g>
</svg>
