<?xml version="1.0" encoding="utf-8"?>
<!-- Generator: Adobe Illustrator 16.0.4, SVG Export Plug-In . SVG Version: 6.00 Build 0)  -->
<!DOCTYPE svg PUBLIC "-//W3C//DTD SVG 1.1//EN" "http://www.w3.org/Graphics/SVG/1.1/DTD/svg11.dtd">
<svg version="1.1" id="Layer_1" xmlns="http://www.w3.org/2000/svg" xmlns:xlink="http://www.w3.org/1999/xlink" x="0px" y="0px"
	 width="40.13px" height="36.756px" viewBox="0 0 40.13 36.756" enable-background="new 0 0 40.13 36.756" xml:space="preserve">
<g display="none">
	<g display="inline">
		<path fill="#51ABDB" d="M29.999,9.751c0.125-0.146-2.872-1.941-7.951-2.764c-2.525-0.455-5.525-0.592-8.74-0.462
			c-3.193,0.211-6.69,0.664-9.926,2.032c-0.426,0.179-0.837,0.39-1.229,0.679c-0.378,0.292-0.795,0.654-0.97,1.283
			c-0.197,0.592,0.134,1.359,0.573,1.681c0.411,0.358,0.919,0.547,1.307,0.679c1.63,0.594,3.314,0.984,4.918,1.279
			c3.23,0.637,6.322,0.903,9.001,1.015c2.677,0.116,4.995-0.004,6.648-0.161c1.746-0.132,2.725-0.438,2.954-0.466
			c1.71-0.388,2.916-1.282,2.73-1.772c-0.189-0.508-1.571-0.468-3.165-0.105c-0.189,0.021-1.191,0.351-2.718,0.509
			c-1.604,0.202-3.787,0.391-6.413,0.366c-2.619-0.018-5.641-0.174-8.809-0.683c-1.601-0.238-3.2-0.553-4.778-1.064
			c-0.8-0.221-1.362-0.598-1.222-1.031c0.096-0.472,0.861-1.013,1.554-1.322C6.824,8.02,10.2,7.458,13.352,7.135
			c3.163-0.24,6.146-0.209,8.648,0.151c2.52,0.339,4.562,0.9,5.951,1.411C29.39,9.1,29.983,9.792,29.999,9.751z"/>
	</g>
	<g display="inline">
		<path fill="#51ABDB" d="M19.441,31.622c0.001-0.019-1.621-0.053-4.055-0.377c-2.409-0.304-5.766-1.164-8.42-3.372
			c-2.695-2.14-4.374-5.357-5.202-7.808c-0.44-1.235-0.73-2.309-0.921-3.092c-0.215-0.854-0.24-1.357-0.263-1.446
			c-0.068-0.766,0.185-1.342,0.681-1.551c0.496-0.213,1.165,0.474,1.238,1.332c0.022,0.107,0.022,0.602,0.152,1.284
			c0.133,0.755,0.333,1.786,0.667,2.977c0.338,1.196,0.78,2.541,1.485,3.859c0.7,1.322,1.64,2.631,2.797,3.716
			c2.313,2.239,5.469,3.325,7.84,3.805C17.823,31.447,19.445,31.605,19.441,31.622z"/>
	</g>
	<g display="inline">
		<path fill="#51ABDB" d="M31.811,20.318c-0.011-0.012,1.179-0.994,2.862-2.577c1.633-1.565,3.842-3.967,4.293-6.941
			c0.243-1.439,0.003-2.976-0.858-3.836c-0.398-0.417-0.993-0.728-1.506-0.858c-0.53-0.142-1.088-0.123-1.592-0.042
			c-1.018,0.185-1.799,0.654-2.25,1.043c-0.368,0.334-0.623,0.754-0.662,0.807c-0.392,0.551-1.076,0.889-1.536,0.609
			c-0.449-0.273-0.527-1.032-0.031-1.737c0.085-0.09,0.309-0.505,1.088-1.131c0.714-0.524,1.799-1.062,3.183-1.206
			c1.367-0.16,3.162,0.26,4.298,1.645c1.154,1.405,1.198,3.325,0.813,4.897c-0.789,3.289-3.291,5.526-5.039,6.977
			C33.059,19.423,31.803,20.304,31.811,20.318z"/>
	</g>
	<g display="inline">
		<path fill="#51ABDB" d="M2.449,23.291c0.019,0.019-0.595,0.318-1.381,1.192c-0.374,0.444-0.766,1.069-0.956,1.878
			c-0.196,0.802-0.147,1.787,0.242,2.741c0.768,1.932,2.699,3.584,4.929,4.749c2.23,1.236,4.869,2.069,7.568,2.502
			c2.703,0.438,5.462,0.494,8.053,0.29c2.612-0.229,4.995-0.811,7.022-1.418c4.102-1.334,6.603-3.058,6.893-3.241
			c1.14-0.778,1.724-1.809,1.395-2.222c-0.336-0.421-1.424-0.095-2.479,0.624c-0.248,0.162-2.54,1.875-6.311,3.29
			c-1.926,0.67-4.198,1.33-6.657,1.654c-2.477,0.306-5.155,0.371-7.783,0.065c-2.626-0.3-5.208-0.988-7.418-2.086
			c-2.237-1.045-4.114-2.529-4.934-4.327c-0.865-1.807-0.212-3.589,0.502-4.447C1.866,23.641,2.47,23.307,2.449,23.291z"/>
	</g>
	<g display="inline">
		<path fill="#FF3333" d="M17.016,12.151c-0.02-0.013,1.329-0.629,3.276-1.606c0.454-0.264,1.043-0.509,1.5-0.825
			c0.472-0.302,0.867-0.729,0.864-1.144c-0.004-0.415-0.507-0.793-1.106-1.096c-0.607-0.306-1.322-0.558-2.055-0.797
			c-1.469-0.493-3.028-0.891-4.434-1.511c-0.688-0.311-1.373-0.695-1.77-1.253c-0.41-0.573-0.282-1.224,0.058-1.69
			c0.737-0.958,1.862-1.359,2.567-1.661c0.743-0.287,1.228-0.421,1.326-0.452c0.805-0.225,1.606-0.106,1.779,0.214
			c0.174,0.325-0.294,0.716-1.003,0.915c-0.085,0.027-0.536,0.133-1.188,0.348c-0.625,0.215-1.548,0.554-2.016,1.089
			c-0.22,0.269-0.325,0.575-0.152,0.878c0.171,0.313,0.624,0.646,1.193,0.939c1.145,0.593,2.673,1.079,4.108,1.645
			c0.727,0.282,1.453,0.58,2.098,0.955c0.621,0.364,1.256,0.872,1.205,1.486c-0.078,0.597-0.615,1.022-1.162,1.34
			c-0.557,0.327-1.138,0.525-1.631,0.773C18.402,11.59,17.002,12.135,17.016,12.151z"/>
	</g>
</g>
<g display="none">
	<path display="inline" fill="#6EC71D" d="M39.842,21.278c0.185-1.018,0.288-2.062,0.288-3.128c0-6.4-3.485-12.046-8.794-15.395
		c-9.254,5.123-19.502,8.707-30.221,9.275C0.395,13.947,0,16.005,0,18.15c0,8.922,6.771,16.373,15.808,18.183
		C22.427,29.822,30.788,24.93,39.842,21.278z"/>
	<path display="inline" fill="#168A3E" d="M19.51,36.745c0.185,0.004,0.369,0.012,0.555,0.012c8.599,0,15.932-5.018,18.787-12.066
		C31.692,27.788,25.055,31.731,19.51,36.745z"/>
	<path display="inline" fill="#168A3E" d="M28.385,1.219c-2.536-1.074-5.352-1.676-8.32-1.676c-7.573,0-14.164,3.892-17.58,9.635
		C11.612,8.427,20.37,5.448,28.385,1.219z"/>
	<g display="inline">
		<path fill="#168A3E" d="M7.311,33.181c-6.265,0.312-7.265-3.782-7.265-5.083c0-1.491,0.865-4.283,3.945-5.756
			C7.813,20.515,41.689,9.721,33.978,4.198c3.51,1.232,2.928,4.577-0.059,7.393c-2.993,2.797-6.942,5.539-11.129,8.168
			c-4.456,3.016-12.736,7.492-14.951,8.964C6.095,29.882,4.324,31.369,7.311,33.181z"/>
	</g>
</g>
<g display="none">
	<path display="inline" fill="#00A2FF" d="M0.859,5.591c0,0,17.128,1.668,18.525,8.309s-4.768,20.842-4.768,20.842
		s4.019-14.915,0.817-20.433C12.232,8.792,0.859,5.591,0.859,5.591z"/>
	<path display="inline" fill="#FF9200" d="M39.987,5.591c0,0-17.129,1.668-18.525,8.309c-1.396,6.641,4.767,20.842,4.767,20.842
		s-4.018-14.915-0.816-20.433C28.613,8.792,39.987,5.591,39.987,5.591z"/>
	<circle display="inline" fill="#FFC000" cx="20.446" cy="5.66" r="3.644"/>
</g>
<g>
	<g>
		<linearGradient id="SVGID_1_" gradientUnits="userSpaceOnUse" x1="12.1519" y1="25.5698" x2="22.293" y2="25.5698">
			<stop  offset="0" style="stop-color:#EC1C24"/>
			<stop  offset="1" style="stop-color:#A62C32"/>
		</linearGradient>
		<path fill="url(#SVGID_1_)" d="M22.185,21.709c-0.089-1.177-0.209-2.353-0.347-3.524c-0.053-0.442-0.165-0.896-0.327-1.312
			c-0.114-0.296-0.271-0.61-0.475-0.854c-0.195-0.231-0.475-0.385-0.763-0.466c-0.299-0.085-0.625-0.17-0.938-0.17
			c-0.323,0.002-0.7,0.096-0.904,0.367c-0.144,0.19-0.214,0.404-0.29,0.628c0.013-0.037-0.37-0.266-0.401-0.279
			c-0.306-0.136-0.589-0.178-0.909-0.044c-0.338,0.142-0.434,0.64-0.491,0.959c0.003-0.021-0.222-0.162-0.249-0.18
			c-0.351-0.248-0.77-0.236-1.154-0.07c-0.519,0.225-0.792,0.731-0.9,1.259c-0.036,0.172-0.061,0.346-0.08,0.52
			c-0.039,0.354-0.033,0.712,0.009,1.066c0.083,0.72,0.292,1.43,0.559,2.105c0.145,0.364,0.305,0.727,0.48,1.077
			c0.24,0.482,0.491,0.963,0.712,1.456c0.532,1.189,0.964,2.321,1.245,3.589c0.29,1.312,0.468,3.383-0.38,4.587
			c-0.433,0.614-1.362,1.158-2.151,0.946c-0.606-0.163-0.925-0.566-1.038-1.243c-0.075-0.449-0.003-1.178,0.209-1.601
			c0.39-0.778,0.702-0.783,0.702-1.017c0-0.311-0.606,0.035-0.671,0.075c-0.468,0.292-0.858,0.738-1.097,1.232
			c-0.586,1.213-0.525,2.704,0.309,3.784c1.321,1.71,4.133,1.302,5.694,0.198c0.53-0.375,1.092-0.888,1.463-1.424
			C22.308,30.061,22.478,25.586,22.185,21.709z"/>
		<path d="M14.904,16.453c0.228-0.101,0.49-0.159,0.739-0.12s0.422,0.198,0.594,0.369c0.048-0.266,0.071-0.312,0.125-0.447
			c0.084-0.204,0.232-0.426,0.435-0.511c0.171-0.074,0.339-0.073,0.525-0.051c0.213,0.024,0.384,0.105,0.559,0.213
			c0.055,0.034,0.19,0.125,0.19,0.125c-0.012-0.008,0.041-0.167,0.051-0.193c0.174-0.5,0.689-0.759,1.194-0.736
			c0.168,0.008,0.345,0.026,0.51,0.06c0.191,0.038,0.422,0.094,0.607,0.166c0.042,0.016,0.096,0.037,0.153,0.065
			c0.156,0.068,0.349,0.163,0.479,0.223c-0.233-0.184-0.391-0.45-0.611-0.646c-0.374-0.335-0.724-0.53-1.175-0.751
			c-0.421-0.208-1.034-0.364-1.382-0.697c-0.436-0.419-0.564-0.985-0.737-1.547c-0.195-0.637-0.42-1.55-0.486-2.215
			c-0.267-2.65,0.09-4.337,1.711-5.751c0.44-0.384,0.94-0.705,1.482-0.928c0.312-0.129,0.634-0.243,0.966-0.31
			c0.207-0.042,0.418-0.066,0.629-0.066c0.037,0,0.166,0.025,0.195-0.013c0.009-0.014,0.002-0.033,0-0.049
			c-0.012-0.052-0.055-0.05-0.013-0.118c0.015-0.025,0.138-0.065,0.039-0.159c0.146-0.006,0.136-0.13,0.126-0.162
			c-0.021-0.065-0.812,0.021-1.258,0.138c-0.699,0.186-1.081,0.337-1.715,0.719c-0.827,0.498-1.407,1.136-1.879,1.948
			c-0.829,1.428-1.021,2.948-0.941,4.584c0.105,2.16,0.227,2.563,0.227,3.587c0,0.828-0.596,1.27-1.116,1.827
			c-0.164,0.174-0.321,0.355-0.459,0.553c-0.234,0.329-0.481,0.879-0.581,1.274c-0.02,0.078-0.137,0.531-0.202,0.601
			c0.082-0.046,0.167-0.144,0.247-0.249c0.089-0.118,0.174-0.248,0.241-0.323C14.527,16.691,14.694,16.542,14.904,16.453z"/>
	</g>
	<g>
		<path fill="#231F20" d="M4.623,25.099c0,0.195-0.026,0.385-0.08,0.571c-0.052,0.186-0.146,0.36-0.28,0.523
			c-0.134,0.164-0.323,0.301-0.567,0.41c-0.126,0.051-0.265,0.093-0.417,0.122c-0.152,0.031-0.315,0.047-0.488,0.047H1.602v-3.871
			v-1.796h1.555c0.252,0,0.476,0.06,0.668,0.179c0.191,0.117,0.339,0.284,0.44,0.501C4.369,22,4.419,22.241,4.419,22.502
			c0,0.591-0.262,0.982-0.787,1.17c0.163,0.031,0.321,0.116,0.475,0.254c0.153,0.139,0.278,0.314,0.373,0.524
			C4.575,24.662,4.623,24.876,4.623,25.099z M3.914,22.469c0-0.259-0.087-0.48-0.263-0.667c-0.174-0.185-0.421-0.278-0.738-0.278
			H2.141v1.97l0.712-0.008c0.115,0,0.22-0.012,0.314-0.033c0.094-0.022,0.182-0.059,0.266-0.105
			c0.157-0.097,0.277-0.224,0.358-0.379C3.873,22.812,3.914,22.647,3.914,22.469z M4.087,25.181c0-0.368-0.09-0.662-0.271-0.881
			c-0.181-0.221-0.441-0.331-0.781-0.331H2.141v2.322l0.771,0.01c0.375,0,0.663-0.108,0.867-0.32
			C3.984,25.766,4.087,25.5,4.087,25.181z"/>
		<path fill="#231F20" d="M5.578,21.875H5.101v-0.77h0.478V21.875z M5.578,26.773H5.101v-3.871v-0.311h0.478v3.872V26.773z"/>
		<path fill="#231F20" d="M7.278,26.773c-0.113,0.057-0.24,0.085-0.382,0.085c-0.419,0-0.628-0.287-0.628-0.863v-0.117v-2.865H5.853
			v-0.416h0.415v-1.252h0.476v1.252h0.535v0.416H6.744v2.992c0,0.289,0.087,0.437,0.262,0.437c0.082,0,0.171-0.029,0.272-0.087
			V26.773z"/>
		<path fill="#231F20" d="M8.567,26.773c-0.113,0.057-0.241,0.085-0.382,0.085c-0.42,0-0.63-0.287-0.63-0.863v-0.117v-2.865H7.14
			v-0.416h0.415v-1.252h0.476v1.252h0.536v0.416H8.031v2.992c0,0.289,0.087,0.437,0.263,0.437c0.081,0,0.172-0.029,0.273-0.087
			V26.773z"/>
		<path fill="#231F20" d="M11.065,24.308v0.063v0.051v0.045c0,0.116-0.005,0.21-0.019,0.277H9.078v0.062
			c0,0.213,0.017,0.443,0.05,0.692c0.034,0.252,0.108,0.487,0.224,0.707c0.115,0.219,0.284,0.33,0.506,0.33
			c0.239,0,0.418-0.094,0.541-0.282c0.122-0.188,0.183-0.396,0.183-0.624l-0.011-0.165h0.476l0.004,0.137
			c0,0.445-0.119,0.784-0.356,1.011c-0.238,0.228-0.516,0.342-0.836,0.342c-0.141,0-0.27-0.024-0.386-0.07
			c-0.117-0.044-0.223-0.109-0.316-0.192c-0.175-0.163-0.302-0.363-0.382-0.598c-0.08-0.234-0.128-0.45-0.146-0.645
			c-0.018-0.196-0.026-0.412-0.026-0.646c0-0.23,0.005-0.428,0.018-0.594s0.034-0.326,0.067-0.481
			c0.053-0.287,0.134-0.518,0.242-0.694c0.106-0.176,0.237-0.304,0.392-0.38c0.154-0.077,0.333-0.115,0.538-0.115
			c0.273,0,0.499,0.075,0.678,0.228c0.178,0.152,0.311,0.363,0.398,0.633C11.022,23.67,11.065,23.973,11.065,24.308z M10.571,24.327
			c0-0.912-0.238-1.368-0.713-1.368c-0.241,0-0.425,0.102-0.55,0.31c-0.067,0.109-0.12,0.25-0.16,0.416
			c-0.047,0.196-0.07,0.408-0.07,0.643H10.571z"/>
		<path fill="#231F20" d="M12.881,22.958c-0.294,0.048-0.504,0.099-0.63,0.15c-0.125,0.051-0.222,0.153-0.287,0.304
			c-0.066,0.148-0.098,0.376-0.098,0.678v2.683h-0.477v-3.871v-0.303h0.477v0.477c0.101-0.2,0.227-0.349,0.376-0.448
			c0.149-0.1,0.363-0.15,0.639-0.15V22.958z"/>
	</g>
	<g>
		<path fill="#231F20" d="M27.146,24.682c0,0.619-0.071,1.115-0.221,1.493c-0.073,0.228-0.202,0.406-0.386,0.53
			c-0.182,0.126-0.386,0.189-0.607,0.189c-0.193,0-0.367-0.047-0.528-0.141c-0.16-0.094-0.287-0.227-0.384-0.4v1.789h-0.478v-3.87
			v-1.667h0.478v0.353c0.088-0.177,0.21-0.312,0.373-0.407c0.161-0.097,0.335-0.144,0.524-0.144c0.17,0,0.331,0.038,0.483,0.118
			c0.153,0.078,0.287,0.199,0.405,0.36c0.114,0.162,0.197,0.365,0.241,0.607C27.114,23.852,27.146,24.25,27.146,24.682z
			 M26.693,24.682c0-0.343-0.02-0.646-0.055-0.916c-0.038-0.269-0.119-0.491-0.243-0.666c-0.124-0.177-0.306-0.265-0.546-0.265
			c-0.254,0-0.443,0.086-0.563,0.261c-0.12,0.173-0.194,0.382-0.227,0.626c-0.01,0.109-0.021,0.244-0.028,0.4
			c-0.007,0.157-0.011,0.326-0.011,0.508c0,0.61,0.062,1.071,0.195,1.382c0.129,0.311,0.359,0.464,0.696,0.464
			c0.156,0,0.294-0.074,0.412-0.224c0.062-0.076,0.112-0.164,0.157-0.265c0.046-0.101,0.083-0.222,0.115-0.363
			C26.661,25.348,26.693,25.035,26.693,24.682z"/>
		<path fill="#231F20" d="M29.845,24.308v0.063v0.051v0.045c0,0.116-0.005,0.21-0.018,0.277h-1.968v0.062
			c0,0.213,0.016,0.443,0.05,0.692c0.032,0.252,0.106,0.487,0.222,0.707c0.117,0.219,0.285,0.33,0.508,0.33
			c0.238,0,0.418-0.094,0.54-0.282c0.124-0.188,0.184-0.396,0.184-0.624l-0.012-0.165h0.477l0.004,0.137
			c0,0.445-0.12,0.784-0.356,1.011c-0.236,0.228-0.516,0.342-0.836,0.342c-0.141,0-0.27-0.024-0.386-0.07
			c-0.118-0.044-0.225-0.109-0.317-0.192c-0.173-0.163-0.302-0.363-0.381-0.598c-0.08-0.234-0.13-0.45-0.145-0.645
			c-0.019-0.196-0.027-0.412-0.027-0.646c0-0.23,0.005-0.428,0.019-0.594c0.013-0.166,0.033-0.326,0.065-0.481
			c0.054-0.287,0.136-0.518,0.243-0.694c0.106-0.176,0.236-0.304,0.392-0.38c0.153-0.077,0.331-0.115,0.537-0.115
			c0.272,0,0.499,0.075,0.677,0.228c0.181,0.152,0.312,0.363,0.4,0.633C29.802,23.67,29.845,23.973,29.845,24.308z M29.351,24.327
			c0-0.912-0.236-1.368-0.712-1.368c-0.242,0-0.426,0.102-0.552,0.31c-0.064,0.109-0.117,0.25-0.157,0.416
			c-0.045,0.196-0.07,0.408-0.07,0.643H29.351z"/>
		<path fill="#231F20" d="M32.656,24.682c0,0.619-0.074,1.115-0.224,1.493c-0.073,0.228-0.202,0.406-0.386,0.53
			c-0.183,0.126-0.386,0.189-0.606,0.189c-0.192,0-0.368-0.047-0.527-0.141c-0.162-0.094-0.289-0.227-0.384-0.4v1.789h-0.478v-3.87
			v-1.667h0.478v0.353c0.086-0.177,0.208-0.312,0.371-0.407c0.163-0.097,0.337-0.144,0.524-0.144c0.169,0,0.333,0.038,0.483,0.118
			c0.153,0.078,0.287,0.199,0.405,0.36c0.117,0.162,0.199,0.365,0.243,0.607C32.621,23.852,32.656,24.25,32.656,24.682z
			 M32.2,24.682c0-0.343-0.018-0.646-0.056-0.916c-0.037-0.269-0.116-0.491-0.24-0.666c-0.127-0.177-0.308-0.265-0.545-0.265
			c-0.258,0-0.444,0.086-0.566,0.261c-0.121,0.173-0.195,0.382-0.225,0.626c-0.012,0.109-0.021,0.244-0.031,0.4
			c-0.006,0.157-0.008,0.326-0.008,0.508c0,0.61,0.062,1.071,0.193,1.382c0.129,0.311,0.36,0.464,0.699,0.464
			c0.153,0,0.291-0.074,0.409-0.224c0.062-0.076,0.114-0.164,0.159-0.265c0.044-0.101,0.083-0.222,0.115-0.363
			C32.168,25.348,32.2,25.035,32.2,24.682z"/>
		<path fill="#231F20" d="M35.613,24.682c0,0.619-0.071,1.115-0.218,1.493c-0.074,0.228-0.203,0.406-0.387,0.53
			c-0.184,0.126-0.386,0.189-0.608,0.189c-0.193,0-0.366-0.047-0.528-0.141c-0.159-0.094-0.287-0.227-0.386-0.4v1.789h-0.475v-3.87
			v-1.667h0.475v0.353c0.089-0.177,0.213-0.312,0.376-0.407c0.161-0.097,0.335-0.144,0.524-0.144c0.169,0,0.331,0.038,0.484,0.118
			c0.151,0.078,0.286,0.199,0.402,0.36c0.116,0.162,0.198,0.365,0.242,0.607C35.583,23.852,35.613,24.25,35.613,24.682z
			 M35.161,24.682c0-0.343-0.019-0.646-0.054-0.916c-0.038-0.269-0.119-0.491-0.244-0.666c-0.123-0.177-0.305-0.265-0.544-0.265
			c-0.256,0-0.445,0.086-0.564,0.261c-0.121,0.173-0.194,0.382-0.226,0.626c-0.014,0.109-0.023,0.244-0.03,0.4
			c-0.006,0.157-0.013,0.326-0.013,0.508c0,0.61,0.065,1.071,0.195,1.382s0.362,0.464,0.7,0.464c0.155,0,0.294-0.074,0.408-0.224
			c0.063-0.076,0.116-0.164,0.159-0.265c0.044-0.101,0.085-0.222,0.116-0.363C35.131,25.348,35.161,25.035,35.161,24.682z"/>
		<path fill="#231F20" d="M38.314,24.308v0.063v0.051v0.045c0,0.116-0.007,0.21-0.019,0.277h-1.969v0.062
			c0,0.213,0.018,0.443,0.051,0.692c0.031,0.252,0.106,0.487,0.222,0.707c0.115,0.219,0.285,0.33,0.508,0.33
			c0.238,0,0.419-0.094,0.54-0.282c0.122-0.188,0.183-0.396,0.183-0.624l-0.01-0.165h0.476l0.004,0.137
			c0,0.445-0.119,0.784-0.356,1.011c-0.239,0.228-0.516,0.342-0.836,0.342c-0.141,0-0.271-0.024-0.387-0.07
			c-0.117-0.044-0.225-0.109-0.316-0.192c-0.176-0.163-0.302-0.363-0.383-0.598c-0.08-0.234-0.128-0.45-0.146-0.645
			c-0.017-0.196-0.024-0.412-0.024-0.646c0-0.23,0.006-0.428,0.017-0.594c0.014-0.166,0.035-0.326,0.067-0.481
			c0.055-0.287,0.133-0.518,0.24-0.694c0.107-0.176,0.24-0.304,0.394-0.38c0.154-0.077,0.332-0.115,0.538-0.115
			c0.271,0,0.498,0.075,0.676,0.228c0.179,0.152,0.312,0.363,0.402,0.633C38.27,23.67,38.314,23.973,38.314,24.308z M37.82,24.327
			c0-0.912-0.237-1.368-0.713-1.368c-0.244,0-0.426,0.102-0.552,0.31c-0.066,0.109-0.117,0.25-0.157,0.416
			c-0.048,0.196-0.071,0.408-0.071,0.643H37.82z"/>
		<path fill="#231F20" d="M40.13,22.958c-0.294,0.048-0.503,0.099-0.631,0.15c-0.126,0.051-0.22,0.153-0.286,0.304
			c-0.066,0.148-0.098,0.376-0.098,0.678v2.683h-0.479v-3.871v-0.303h0.479v0.477c0.1-0.2,0.227-0.349,0.376-0.448
			c0.148-0.1,0.362-0.15,0.639-0.15V22.958z"/>
	</g>
	<g>
		<path fill="#58595B" d="M25.205,18.529c-0.13,0.021-0.223,0.043-0.279,0.066c-0.054,0.022-0.099,0.067-0.128,0.134
			s-0.044,0.167-0.044,0.301v1.189h-0.211v-1.716v-0.135h0.211v0.212c0.047-0.09,0.104-0.156,0.168-0.199
			c0.066-0.044,0.161-0.066,0.283-0.066V18.529z"/>
		<path fill="#58595B" d="M26.457,19.126v0.028v0.021v0.021c0,0.051-0.003,0.094-0.007,0.122h-0.875v0.028
			c0,0.094,0.009,0.196,0.022,0.308c0.016,0.11,0.05,0.216,0.1,0.313c0.05,0.097,0.126,0.146,0.225,0.146
			c0.105,0,0.186-0.042,0.241-0.124c0.053-0.083,0.079-0.177,0.079-0.277l-0.004-0.074h0.212V19.7c0,0.198-0.051,0.349-0.158,0.451
			c-0.104,0.099-0.229,0.15-0.37,0.15c-0.061,0-0.12-0.011-0.173-0.031c-0.05-0.021-0.099-0.05-0.14-0.087
			c-0.078-0.072-0.132-0.16-0.168-0.264c-0.037-0.104-0.059-0.198-0.064-0.287c-0.009-0.087-0.011-0.181-0.011-0.285
			c0-0.103,0.002-0.19,0.006-0.265c0.007-0.072,0.017-0.145,0.03-0.212c0.023-0.127,0.061-0.229,0.105-0.309
			c0.049-0.079,0.107-0.136,0.175-0.17c0.066-0.033,0.149-0.05,0.239-0.05c0.121,0,0.222,0.034,0.299,0.102
			c0.08,0.066,0.14,0.16,0.179,0.28C26.437,18.843,26.457,18.978,26.457,19.126z M26.238,19.135c0-0.404-0.107-0.606-0.316-0.606
			c-0.108,0-0.188,0.045-0.246,0.138c-0.027,0.048-0.052,0.109-0.068,0.184c-0.021,0.086-0.032,0.182-0.032,0.285H26.238z"/>
		<path fill="#58595B" d="M27.758,19.758c0,0.052-0.004,0.105-0.013,0.165c-0.008,0.06-0.04,0.119-0.09,0.181
			c-0.053,0.061-0.117,0.11-0.199,0.146c-0.08,0.036-0.163,0.055-0.252,0.055c-0.09,0-0.176-0.022-0.255-0.062
			c-0.042-0.023-0.078-0.051-0.109-0.082s-0.062-0.07-0.095-0.12c-0.057-0.092-0.092-0.207-0.106-0.348h0.212
			c0,0.066,0.008,0.126,0.029,0.179c0.021,0.051,0.048,0.095,0.083,0.134c0.065,0.066,0.141,0.1,0.232,0.1
			c0.085,0,0.16-0.026,0.227-0.081c0.038-0.028,0.064-0.061,0.085-0.092c0.021-0.034,0.031-0.069,0.031-0.108v-0.055
			c0-0.117-0.033-0.206-0.099-0.271s-0.166-0.131-0.298-0.199c-0.135-0.065-0.236-0.126-0.309-0.184
			c-0.073-0.055-0.121-0.137-0.145-0.244c-0.01-0.046-0.017-0.089-0.017-0.125c0-0.091,0.024-0.171,0.073-0.238
			c0.047-0.069,0.111-0.12,0.191-0.158c0.077-0.035,0.159-0.055,0.24-0.055c0.066,0,0.126,0.012,0.186,0.031
			c0.058,0.022,0.112,0.055,0.161,0.097c0.046,0.043,0.085,0.098,0.117,0.163c0.017,0.037,0.029,0.074,0.039,0.114
			c0.012,0.038,0.016,0.078,0.016,0.118h-0.211c0-0.052-0.007-0.101-0.024-0.143c-0.015-0.04-0.038-0.076-0.068-0.104
			c-0.057-0.059-0.123-0.086-0.202-0.086c-0.077,0-0.144,0.025-0.203,0.077c-0.059,0.052-0.088,0.118-0.088,0.204
			c0,0.084,0.029,0.147,0.086,0.191c0.055,0.04,0.162,0.103,0.316,0.186c0.155,0.082,0.269,0.166,0.344,0.255
			C27.721,19.487,27.758,19.605,27.758,19.758z"/>
		<path fill="#58595B" d="M28.515,20.219c-0.051,0.025-0.107,0.038-0.17,0.038c-0.187,0-0.278-0.128-0.278-0.382v-0.053v-1.271
			h-0.182v-0.185h0.182v-0.556h0.212v0.556h0.236v0.185h-0.236v1.327c0,0.129,0.038,0.192,0.114,0.192
			c0.038,0,0.077-0.013,0.122-0.037V20.219z"/>
		<path fill="#58595B" d="M29.835,20.219h-0.077h-0.059c-0.053,0-0.091-0.003-0.118-0.013c-0.023-0.007-0.044-0.024-0.056-0.05
			c-0.014-0.023-0.023-0.064-0.029-0.122c-0.053,0.062-0.086,0.104-0.107,0.123c-0.019,0.021-0.059,0.042-0.113,0.061
			c-0.057,0.021-0.134,0.03-0.23,0.03c-0.126,0-0.223-0.044-0.292-0.13c-0.068-0.086-0.102-0.201-0.102-0.344
			c0-0.065,0.008-0.139,0.023-0.216c0.022-0.112,0.072-0.198,0.149-0.258c0.079-0.061,0.185-0.114,0.319-0.16
			c0.136-0.046,0.229-0.083,0.276-0.109c0.049-0.027,0.076-0.072,0.076-0.136c0-0.172-0.025-0.291-0.074-0.354
			c-0.048-0.063-0.121-0.096-0.22-0.096c-0.1,0-0.168,0.028-0.21,0.087c-0.039,0.057-0.067,0.151-0.083,0.285h-0.211
			c0-0.146,0.039-0.272,0.119-0.374c0.078-0.104,0.198-0.156,0.357-0.156c0.139,0,0.247,0.021,0.325,0.061
			c0.075,0.04,0.13,0.104,0.159,0.187c0.017,0.045,0.027,0.093,0.036,0.146c0.006,0.054,0.01,0.117,0.01,0.19v1.007
			c0,0.068,0.004,0.112,0.006,0.134c0.003,0.021,0.013,0.035,0.03,0.041c0.017,0.005,0.049,0.008,0.094,0.008V20.219z
			 M29.496,19.559v-0.397c-0.018,0.032-0.059,0.062-0.129,0.092l-0.226,0.099c-0.086,0.037-0.153,0.08-0.204,0.134
			c-0.052,0.052-0.079,0.12-0.079,0.206c0,0.126,0.019,0.218,0.053,0.278c0.033,0.062,0.104,0.09,0.209,0.09
			c0.08,0,0.147-0.018,0.203-0.057c0.055-0.042,0.097-0.097,0.128-0.173C29.479,19.754,29.496,19.664,29.496,19.559z"/>
		<path fill="#58595B" d="M31.159,20.219h-0.211v-0.185c-0.008,0.038-0.033,0.076-0.081,0.113c-0.045,0.039-0.1,0.069-0.166,0.093
			c-0.065,0.022-0.133,0.034-0.199,0.034c-0.121,0-0.225-0.042-0.304-0.127c-0.08-0.084-0.122-0.22-0.122-0.403v-1.377h0.21v1.428
			c0,0.099,0.027,0.174,0.08,0.224c0.05,0.053,0.113,0.078,0.19,0.078c0.062,0,0.123-0.017,0.187-0.051
			c0.062-0.034,0.11-0.082,0.15-0.143c0.035-0.062,0.055-0.133,0.055-0.212v-1.324h0.211v1.718V20.219z"/>
		<path fill="#58595B" d="M32.246,18.529c-0.132,0.021-0.225,0.043-0.279,0.066c-0.057,0.022-0.1,0.067-0.128,0.134
			c-0.029,0.066-0.043,0.167-0.043,0.301v1.189h-0.213v-1.716v-0.135h0.213v0.212c0.043-0.09,0.1-0.156,0.165-0.199
			c0.067-0.044,0.161-0.066,0.285-0.066V18.529z"/>
		<path fill="#58595B" d="M33.543,20.219h-0.078h-0.06c-0.053,0-0.093-0.003-0.118-0.013c-0.024-0.007-0.043-0.024-0.056-0.05
			c-0.013-0.023-0.023-0.064-0.031-0.122c-0.049,0.062-0.087,0.104-0.105,0.123c-0.021,0.021-0.058,0.042-0.113,0.061
			c-0.057,0.021-0.132,0.03-0.23,0.03c-0.126,0-0.222-0.044-0.289-0.13c-0.071-0.086-0.104-0.201-0.104-0.344
			c0-0.065,0.008-0.139,0.022-0.216c0.022-0.112,0.073-0.198,0.151-0.258c0.076-0.061,0.183-0.114,0.318-0.16
			c0.137-0.046,0.229-0.083,0.278-0.109c0.049-0.027,0.072-0.072,0.072-0.136c0-0.172-0.023-0.291-0.072-0.354
			c-0.048-0.063-0.121-0.096-0.222-0.096c-0.097,0-0.165,0.028-0.205,0.087c-0.041,0.057-0.068,0.151-0.084,0.285h-0.213
			c0-0.146,0.041-0.272,0.118-0.374c0.079-0.104,0.199-0.156,0.358-0.156c0.138,0,0.247,0.021,0.323,0.061
			c0.077,0.04,0.132,0.104,0.164,0.187c0.012,0.045,0.025,0.093,0.032,0.146c0.009,0.054,0.011,0.117,0.011,0.19v1.007
			c0,0.068,0.002,0.112,0.007,0.134c0.001,0.021,0.013,0.035,0.026,0.041c0.018,0.005,0.051,0.008,0.099,0.008V20.219z M33.2,19.559
			v-0.397c-0.018,0.032-0.06,0.062-0.126,0.092l-0.229,0.099c-0.082,0.037-0.151,0.08-0.203,0.134
			c-0.051,0.052-0.079,0.12-0.079,0.206c0,0.126,0.019,0.218,0.054,0.278c0.033,0.062,0.104,0.09,0.211,0.09
			c0.078,0,0.144-0.018,0.199-0.057c0.058-0.042,0.101-0.097,0.128-0.173C33.185,19.754,33.2,19.664,33.2,19.559z"/>
		<path fill="#58595B" d="M34.867,20.219h-0.21v-1.453c0-0.095-0.028-0.167-0.076-0.215c-0.051-0.049-0.113-0.073-0.188-0.073
			c-0.062,0-0.122,0.014-0.178,0.045s-0.104,0.078-0.14,0.14c-0.037,0.062-0.056,0.13-0.056,0.208v1.349h-0.212v-1.716v-0.136h0.212
			v0.161c0.04-0.07,0.101-0.126,0.178-0.169c0.081-0.042,0.164-0.063,0.25-0.063c0.075,0,0.144,0.018,0.21,0.052
			c0.062,0.036,0.113,0.09,0.15,0.163c0.04,0.074,0.06,0.168,0.06,0.281V20.219z"/>
		<path fill="#58595B" d="M35.738,20.219c-0.051,0.025-0.106,0.038-0.17,0.038c-0.187,0-0.279-0.128-0.279-0.382v-0.053v-1.271
			h-0.182v-0.185h0.182v-0.556h0.212v0.556h0.237v0.185h-0.237v1.327c0,0.129,0.038,0.192,0.115,0.192
			c0.036,0,0.078-0.013,0.122-0.037V20.219z"/>
	</g>
</g>
</svg>
